<svg xmlns="http://www.w3.org/2000/svg" xmlns:xlink="http://www.w3.org/1999/xlink" width="450" height="225" viewBox="0 0 1800 900">
<defs>
  <clipPath id="clip670">
    <rect x="0" y="0" width="1800" height="900"></rect>
  </clipPath>
</defs>
<path clip-path="url(#clip670)" d="M0 900 L1800 900 L1800 0 L0 0  Z" fill="#ffffff" fill-rule="evenodd" fill-opacity="1"></path>
<defs>
  <clipPath id="clip671">
    <rect x="360" y="0" width="1261" height="900"></rect>
  </clipPath>
</defs>
<path clip-path="url(#clip670)" d="M260.419 733.285 L1752.76 733.285 L1752.76 62.9921 L260.419 62.9921  Z" fill="#ffffff" fill-rule="evenodd" fill-opacity="1"></path>
<defs>
  <clipPath id="clip672">
    <rect x="260" y="62" width="1493" height="671"></rect>
  </clipPath>
</defs>
<polyline clip-path="url(#clip672)" style="stroke:#000000; stroke-linecap:round; stroke-linejoin:round; stroke-width:2; stroke-opacity:0.1; fill:none" points="260.419,733.285 260.419,62.9921 "></polyline>
<polyline clip-path="url(#clip672)" style="stroke:#000000; stroke-linecap:round; stroke-linejoin:round; stroke-width:2; stroke-opacity:0.1; fill:none" points="757.865,733.285 757.865,62.9921 "></polyline>
<polyline clip-path="url(#clip672)" style="stroke:#000000; stroke-linecap:round; stroke-linejoin:round; stroke-width:2; stroke-opacity:0.1; fill:none" points="1255.31,733.285 1255.31,62.9921 "></polyline>
<polyline clip-path="url(#clip672)" style="stroke:#000000; stroke-linecap:round; stroke-linejoin:round; stroke-width:2; stroke-opacity:0.1; fill:none" points="1752.76,733.285 1752.76,62.9921 "></polyline>
<polyline clip-path="url(#clip670)" style="stroke:#000000; stroke-linecap:round; stroke-linejoin:round; stroke-width:4; stroke-opacity:1; fill:none" points="260.419,733.285 1752.76,733.285 "></polyline>
<polyline clip-path="url(#clip670)" style="stroke:#000000; stroke-linecap:round; stroke-linejoin:round; stroke-width:4; stroke-opacity:1; fill:none" points="260.419,733.285 260.419,714.388 "></polyline>
<polyline clip-path="url(#clip670)" style="stroke:#000000; stroke-linecap:round; stroke-linejoin:round; stroke-width:4; stroke-opacity:1; fill:none" points="757.865,733.285 757.865,714.388 "></polyline>
<polyline clip-path="url(#clip670)" style="stroke:#000000; stroke-linecap:round; stroke-linejoin:round; stroke-width:4; stroke-opacity:1; fill:none" points="1255.31,733.285 1255.31,714.388 "></polyline>
<polyline clip-path="url(#clip670)" style="stroke:#000000; stroke-linecap:round; stroke-linejoin:round; stroke-width:4; stroke-opacity:1; fill:none" points="1752.76,733.285 1752.76,714.388 "></polyline>
<path clip-path="url(#clip670)" d="M238.301 759.404 Q234.69 759.404 232.862 762.969 Q231.056 766.51 231.056 773.64 Q231.056 780.746 232.862 784.311 Q234.69 787.853 238.301 787.853 Q241.936 787.853 243.741 784.311 Q245.57 780.746 245.57 773.64 Q245.57 766.51 243.741 762.969 Q241.936 759.404 238.301 759.404 M238.301 755.7 Q244.111 755.7 247.167 760.307 Q250.246 764.89 250.246 773.64 Q250.246 782.367 247.167 786.973 Q244.111 791.556 238.301 791.556 Q232.491 791.556 229.412 786.973 Q226.357 782.367 226.357 773.64 Q226.357 764.89 229.412 760.307 Q232.491 755.7 238.301 755.7 Z" fill="#000000" fill-rule="nonzero" fill-opacity="1"></path><path clip-path="url(#clip670)" d="M258.463 785.006 L263.347 785.006 L263.347 790.885 L258.463 790.885 L258.463 785.006 Z" fill="#000000" fill-rule="nonzero" fill-opacity="1"></path><path clip-path="url(#clip670)" d="M273.579 756.325 L291.935 756.325 L291.935 760.26 L277.861 760.26 L277.861 768.733 Q278.88 768.385 279.898 768.223 Q280.917 768.038 281.935 768.038 Q287.722 768.038 291.102 771.209 Q294.482 774.381 294.482 779.797 Q294.482 785.376 291.009 788.478 Q287.537 791.556 281.218 791.556 Q279.042 791.556 276.773 791.186 Q274.528 790.816 272.121 790.075 L272.121 785.376 Q274.204 786.51 276.426 787.066 Q278.648 787.621 281.125 787.621 Q285.13 787.621 287.468 785.515 Q289.806 783.408 289.806 779.797 Q289.806 776.186 287.468 774.08 Q285.13 771.973 281.125 771.973 Q279.25 771.973 277.375 772.39 Q275.523 772.807 273.579 773.686 L273.579 756.325 Z" fill="#000000" fill-rule="nonzero" fill-opacity="1"></path><path clip-path="url(#clip670)" d="M725.018 786.95 L732.657 786.95 L732.657 760.584 L724.346 762.251 L724.346 757.992 L732.61 756.325 L737.286 756.325 L737.286 786.95 L744.925 786.95 L744.925 790.885 L725.018 790.885 L725.018 786.95 Z" fill="#000000" fill-rule="nonzero" fill-opacity="1"></path><path clip-path="url(#clip670)" d="M754.369 785.006 L759.254 785.006 L759.254 790.885 L754.369 790.885 L754.369 785.006 Z" fill="#000000" fill-rule="nonzero" fill-opacity="1"></path><path clip-path="url(#clip670)" d="M779.439 759.404 Q775.828 759.404 773.999 762.969 Q772.193 766.51 772.193 773.64 Q772.193 780.746 773.999 784.311 Q775.828 787.853 779.439 787.853 Q783.073 787.853 784.879 784.311 Q786.707 780.746 786.707 773.64 Q786.707 766.51 784.879 762.969 Q783.073 759.404 779.439 759.404 M779.439 755.7 Q785.249 755.7 788.304 760.307 Q791.383 764.89 791.383 773.64 Q791.383 782.367 788.304 786.973 Q785.249 791.556 779.439 791.556 Q773.629 791.556 770.55 786.973 Q767.494 782.367 767.494 773.64 Q767.494 764.89 770.55 760.307 Q773.629 755.7 779.439 755.7 Z" fill="#000000" fill-rule="nonzero" fill-opacity="1"></path><path clip-path="url(#clip670)" d="M1222.96 786.95 L1230.6 786.95 L1230.6 760.584 L1222.29 762.251 L1222.29 757.992 L1230.55 756.325 L1235.23 756.325 L1235.23 786.95 L1242.87 786.95 L1242.87 790.885 L1222.96 790.885 L1222.96 786.95 Z" fill="#000000" fill-rule="nonzero" fill-opacity="1"></path><path clip-path="url(#clip670)" d="M1252.31 785.006 L1257.2 785.006 L1257.2 790.885 L1252.31 790.885 L1252.31 785.006 Z" fill="#000000" fill-rule="nonzero" fill-opacity="1"></path><path clip-path="url(#clip670)" d="M1267.43 756.325 L1285.78 756.325 L1285.78 760.26 L1271.71 760.26 L1271.71 768.733 Q1272.73 768.385 1273.75 768.223 Q1274.77 768.038 1275.78 768.038 Q1281.57 768.038 1284.95 771.209 Q1288.33 774.381 1288.33 779.797 Q1288.33 785.376 1284.86 788.478 Q1281.39 791.556 1275.07 791.556 Q1272.89 791.556 1270.62 791.186 Q1268.38 790.816 1265.97 790.075 L1265.97 785.376 Q1268.05 786.51 1270.28 787.066 Q1272.5 787.621 1274.97 787.621 Q1278.98 787.621 1281.32 785.515 Q1283.66 783.408 1283.66 779.797 Q1283.66 776.186 1281.32 774.08 Q1278.98 771.973 1274.97 771.973 Q1273.1 771.973 1271.22 772.39 Q1269.37 772.807 1267.43 773.686 L1267.43 756.325 Z" fill="#000000" fill-rule="nonzero" fill-opacity="1"></path><path clip-path="url(#clip670)" d="M1723.99 786.95 L1740.31 786.95 L1740.31 790.885 L1718.37 790.885 L1718.37 786.95 Q1721.03 784.195 1725.61 779.566 Q1730.22 774.913 1731.4 773.57 Q1733.65 771.047 1734.53 769.311 Q1735.43 767.552 1735.43 765.862 Q1735.43 763.108 1733.49 761.371 Q1731.56 759.635 1728.46 759.635 Q1726.26 759.635 1723.81 760.399 Q1721.38 761.163 1718.6 762.714 L1718.6 757.992 Q1721.43 756.858 1723.88 756.279 Q1726.33 755.7 1728.37 755.7 Q1733.74 755.7 1736.93 758.385 Q1740.13 761.071 1740.13 765.561 Q1740.13 767.691 1739.32 769.612 Q1738.53 771.51 1736.42 774.103 Q1735.85 774.774 1732.74 777.992 Q1729.64 781.186 1723.99 786.95 Z" fill="#000000" fill-rule="nonzero" fill-opacity="1"></path><path clip-path="url(#clip670)" d="M1750.13 785.006 L1755.01 785.006 L1755.01 790.885 L1750.13 790.885 L1750.13 785.006 Z" fill="#000000" fill-rule="nonzero" fill-opacity="1"></path><path clip-path="url(#clip670)" d="M1775.2 759.404 Q1771.59 759.404 1769.76 762.969 Q1767.95 766.51 1767.95 773.64 Q1767.95 780.746 1769.76 784.311 Q1771.59 787.853 1775.2 787.853 Q1778.83 787.853 1780.64 784.311 Q1782.47 780.746 1782.47 773.64 Q1782.47 766.51 1780.64 762.969 Q1778.83 759.404 1775.2 759.404 M1775.2 755.7 Q1781.01 755.7 1784.06 760.307 Q1787.14 764.89 1787.14 773.64 Q1787.14 782.367 1784.06 786.973 Q1781.01 791.556 1775.2 791.556 Q1769.39 791.556 1766.31 786.973 Q1763.25 782.367 1763.25 773.64 Q1763.25 764.89 1766.31 760.307 Q1769.39 755.7 1775.2 755.7 Z" fill="#000000" fill-rule="nonzero" fill-opacity="1"></path><path clip-path="url(#clip670)" d="M896.964 862.297 Q896.964 862.039 897.834 860.365 Q898.703 858.658 901.763 852.571 Q904.822 846.452 907.979 840.043 L919.347 817.177 Q920.152 815.727 921.183 815.727 Q922.117 815.727 922.536 816.307 Q922.954 816.887 924.887 820.784 Q925.885 822.684 926.465 823.908 L945.112 861.234 Q945.434 862.039 945.466 862.297 Q945.466 862.941 944.339 862.941 L898.703 862.941 Q896.964 862.941 896.964 862.297 M901.312 857.917 L936.803 857.917 L919.057 822.297 L901.312 857.917 Z" fill="#000000" fill-rule="nonzero" fill-opacity="1"></path><path clip-path="url(#clip670)" d="M991.447 846.645 Q991.447 846.838 991.19 847.579 L985.972 861.814 Q985.682 862.651 985.393 862.812 Q985.103 862.941 983.911 862.941 L953.38 862.941 Q952.639 862.941 952.349 862.909 Q952.059 862.877 951.834 862.716 Q951.609 862.555 951.609 862.2 Q951.609 861.556 951.834 861.266 Q952.092 860.977 952.382 860.944 Q952.671 860.912 953.38 860.912 Q954.99 860.912 955.956 860.816 Q956.923 860.719 957.534 860.59 Q958.179 860.429 958.501 859.978 Q958.855 859.527 959.016 859.141 Q959.177 858.722 959.402 857.788 L968.227 822.362 Q968.484 821.299 968.484 821.138 Q968.484 820.526 968.098 820.365 Q967.744 820.172 966.713 820.075 L964.201 819.946 Q963.428 819.946 963.106 819.914 Q962.816 819.882 962.591 819.721 Q962.365 819.56 962.365 819.206 Q962.365 818.594 962.591 818.304 Q962.848 817.982 963.042 817.95 Q963.267 817.885 963.621 817.885 L972.381 818.078 L982.14 817.885 Q983.203 817.885 983.203 818.69 Q983.203 819.592 982.752 819.785 Q982.301 819.946 980.69 819.946 Q977.599 819.946 976.182 820.268 Q974.797 820.59 974.41 821.138 Q974.056 821.653 973.702 823.038 L964.781 858.658 Q964.459 859.849 964.459 860.171 Q964.459 860.526 964.62 860.655 Q964.813 860.751 965.328 860.816 Q965.908 860.912 966.778 860.912 L972.961 860.912 Q974.829 860.912 976.472 860.622 Q978.114 860.333 979.37 859.914 Q980.658 859.495 981.818 858.722 Q982.977 857.949 983.782 857.273 Q984.62 856.564 985.425 855.469 Q986.262 854.342 986.745 853.569 Q987.26 852.764 987.84 851.476 Q988.42 850.155 988.71 849.415 Q989.032 848.642 989.515 847.321 Q989.805 846.645 989.901 846.452 Q989.998 846.259 990.159 846.098 Q990.352 845.936 990.642 845.936 Q991.029 845.936 991.222 846.162 Q991.447 846.387 991.447 846.645 Z" fill="#000000" fill-rule="nonzero" fill-opacity="1"></path><path clip-path="url(#clip670)" d="M1030.92 879.431 L1030.92 813.473 L1040.88 813.473 L1040.88 814.987 L1035.34 814.987 L1035.34 877.917 L1040.88 877.917 L1040.88 879.431 L1030.92 879.431 Z" fill="#000000" fill-rule="nonzero" fill-opacity="1"></path><path clip-path="url(#clip670)" d="M1094.23 862.941 L1085.59 862.748 Q1078.48 862.748 1076.09 862.941 L1076.09 860.912 Q1081.57 860.912 1081.57 858.915 Q1081.57 858.754 1081.38 857.981 L1077.9 847.901 L1061.6 847.901 L1058.54 856.532 Q1058.41 856.79 1058.41 857.531 Q1058.41 858.915 1059.73 859.914 Q1061.05 860.912 1063.37 860.912 L1063.37 862.941 L1055.77 862.748 L1049.07 862.941 L1049.07 860.912 Q1051.94 860.848 1053.77 859.849 Q1055.61 858.851 1056.45 856.468 L1070.1 817.048 Q1070.36 816.275 1070.65 816.017 Q1070.94 815.727 1071.68 815.727 Q1072.2 815.727 1072.49 815.921 Q1072.78 816.082 1072.87 816.307 Q1073 816.5 1073.19 817.048 L1087.43 858.271 Q1087.98 859.914 1089.04 860.429 Q1090.1 860.912 1093.07 860.912 L1094.23 860.912 L1094.23 862.941 M1077.16 845.872 L1069.72 824.423 L1062.31 845.872 L1077.16 845.872 M1075.84 809.898 Q1075.84 806.098 1071.68 806.098 Q1067.53 806.098 1067.53 809.898 Q1067.53 813.731 1071.68 813.731 Q1075.84 813.731 1075.84 809.898 M1078.03 809.834 Q1078.03 812.281 1076.19 814.02 Q1074.35 815.727 1071.62 815.727 Q1069.07 815.727 1067.2 814.02 Q1065.34 812.314 1065.34 809.834 Q1065.34 807.579 1067.14 805.84 Q1068.98 804.101 1071.75 804.101 Q1074.39 804.101 1076.19 805.808 Q1078.03 807.515 1078.03 809.834 Z" fill="#000000" fill-rule="nonzero" fill-opacity="1"></path><path clip-path="url(#clip670)" d="M1098.06 877.917 L1103.6 877.917 L1103.6 814.987 L1098.06 814.987 L1098.06 813.473 L1108.01 813.473 L1108.01 879.431 L1098.06 879.431 L1098.06 877.917 Z" fill="#000000" fill-rule="nonzero" fill-opacity="1"></path><polyline clip-path="url(#clip672)" style="stroke:#000000; stroke-linecap:round; stroke-linejoin:round; stroke-width:2; stroke-opacity:0.1; fill:none" points="260.419,701.366 1752.76,701.366 "></polyline>
<polyline clip-path="url(#clip672)" style="stroke:#000000; stroke-linecap:round; stroke-linejoin:round; stroke-width:2; stroke-opacity:0.1; fill:none" points="260.419,541.773 1752.76,541.773 "></polyline>
<polyline clip-path="url(#clip672)" style="stroke:#000000; stroke-linecap:round; stroke-linejoin:round; stroke-width:2; stroke-opacity:0.1; fill:none" points="260.419,382.179 1752.76,382.179 "></polyline>
<polyline clip-path="url(#clip672)" style="stroke:#000000; stroke-linecap:round; stroke-linejoin:round; stroke-width:2; stroke-opacity:0.1; fill:none" points="260.419,222.586 1752.76,222.586 "></polyline>
<polyline clip-path="url(#clip672)" style="stroke:#000000; stroke-linecap:round; stroke-linejoin:round; stroke-width:2; stroke-opacity:0.1; fill:none" points="260.419,62.9921 1752.76,62.9921 "></polyline>
<polyline clip-path="url(#clip670)" style="stroke:#000000; stroke-linecap:round; stroke-linejoin:round; stroke-width:4; stroke-opacity:1; fill:none" points="260.419,733.285 260.419,62.9921 "></polyline>
<polyline clip-path="url(#clip670)" style="stroke:#000000; stroke-linecap:round; stroke-linejoin:round; stroke-width:4; stroke-opacity:1; fill:none" points="260.419,701.366 279.317,701.366 "></polyline>
<polyline clip-path="url(#clip670)" style="stroke:#000000; stroke-linecap:round; stroke-linejoin:round; stroke-width:4; stroke-opacity:1; fill:none" points="260.419,541.773 279.317,541.773 "></polyline>
<polyline clip-path="url(#clip670)" style="stroke:#000000; stroke-linecap:round; stroke-linejoin:round; stroke-width:4; stroke-opacity:1; fill:none" points="260.419,382.179 279.317,382.179 "></polyline>
<polyline clip-path="url(#clip670)" style="stroke:#000000; stroke-linecap:round; stroke-linejoin:round; stroke-width:4; stroke-opacity:1; fill:none" points="260.419,222.586 279.317,222.586 "></polyline>
<polyline clip-path="url(#clip670)" style="stroke:#000000; stroke-linecap:round; stroke-linejoin:round; stroke-width:4; stroke-opacity:1; fill:none" points="260.419,62.9921 279.317,62.9921 "></polyline>
<path clip-path="url(#clip670)" d="M221.475 687.165 Q217.864 687.165 216.035 690.73 Q214.23 694.272 214.23 701.401 Q214.23 708.508 216.035 712.072 Q217.864 715.614 221.475 715.614 Q225.109 715.614 226.915 712.072 Q228.743 708.508 228.743 701.401 Q228.743 694.272 226.915 690.73 Q225.109 687.165 221.475 687.165 M221.475 683.461 Q227.285 683.461 230.341 688.068 Q233.419 692.651 233.419 701.401 Q233.419 710.128 230.341 714.734 Q227.285 719.318 221.475 719.318 Q215.665 719.318 212.586 714.734 Q209.53 710.128 209.53 701.401 Q209.53 692.651 212.586 688.068 Q215.665 683.461 221.475 683.461 Z" fill="#000000" fill-rule="nonzero" fill-opacity="1"></path><path clip-path="url(#clip670)" d="M155.179 555.118 L171.498 555.118 L171.498 559.053 L149.554 559.053 L149.554 555.118 Q152.216 552.363 156.799 547.733 Q161.406 543.081 162.586 541.738 Q164.832 539.215 165.711 537.479 Q166.614 535.72 166.614 534.03 Q166.614 531.275 164.67 529.539 Q162.748 527.803 159.647 527.803 Q157.447 527.803 154.994 528.567 Q152.563 529.331 149.785 530.882 L149.785 526.16 Q152.61 525.025 155.063 524.447 Q157.517 523.868 159.554 523.868 Q164.924 523.868 168.119 526.553 Q171.313 529.238 171.313 533.729 Q171.313 535.859 170.503 537.78 Q169.716 539.678 167.609 542.271 Q167.031 542.942 163.929 546.159 Q160.827 549.354 155.179 555.118 Z" fill="#000000" fill-rule="nonzero" fill-opacity="1"></path><path clip-path="url(#clip670)" d="M181.359 524.493 L199.716 524.493 L199.716 528.428 L185.642 528.428 L185.642 536.9 Q186.66 536.553 187.679 536.391 Q188.697 536.206 189.716 536.206 Q195.503 536.206 198.882 539.377 Q202.262 542.548 202.262 547.965 Q202.262 553.544 198.79 556.645 Q195.318 559.724 188.998 559.724 Q186.822 559.724 184.554 559.354 Q182.308 558.983 179.901 558.243 L179.901 553.544 Q181.984 554.678 184.207 555.233 Q186.429 555.789 188.906 555.789 Q192.91 555.789 195.248 553.683 Q197.586 551.576 197.586 547.965 Q197.586 544.354 195.248 542.247 Q192.91 540.141 188.906 540.141 Q187.031 540.141 185.156 540.558 Q183.304 540.974 181.359 541.854 L181.359 524.493 Z" fill="#000000" fill-rule="nonzero" fill-opacity="1"></path><path clip-path="url(#clip670)" d="M221.475 527.572 Q217.864 527.572 216.035 531.136 Q214.23 534.678 214.23 541.808 Q214.23 548.914 216.035 552.479 Q217.864 556.02 221.475 556.02 Q225.109 556.02 226.915 552.479 Q228.743 548.914 228.743 541.808 Q228.743 534.678 226.915 531.136 Q225.109 527.572 221.475 527.572 M221.475 523.868 Q227.285 523.868 230.341 528.474 Q233.419 533.058 233.419 541.808 Q233.419 550.534 230.341 555.141 Q227.285 559.724 221.475 559.724 Q215.665 559.724 212.586 555.141 Q209.53 550.534 209.53 541.808 Q209.53 533.058 212.586 528.474 Q215.665 523.868 221.475 523.868 Z" fill="#000000" fill-rule="nonzero" fill-opacity="1"></path><path clip-path="url(#clip670)" d="M151.197 364.899 L169.554 364.899 L169.554 368.834 L155.48 368.834 L155.48 377.307 Q156.498 376.959 157.517 376.797 Q158.535 376.612 159.554 376.612 Q165.341 376.612 168.721 379.783 Q172.1 382.955 172.1 388.371 Q172.1 393.95 168.628 397.052 Q165.156 400.131 158.836 400.131 Q156.66 400.131 154.392 399.76 Q152.147 399.39 149.739 398.649 L149.739 393.95 Q151.822 395.084 154.045 395.64 Q156.267 396.195 158.744 396.195 Q162.748 396.195 165.086 394.089 Q167.424 391.982 167.424 388.371 Q167.424 384.76 165.086 382.654 Q162.748 380.547 158.744 380.547 Q156.869 380.547 154.994 380.964 Q153.142 381.381 151.197 382.26 L151.197 364.899 Z" fill="#000000" fill-rule="nonzero" fill-opacity="1"></path><path clip-path="url(#clip670)" d="M191.313 367.978 Q187.702 367.978 185.873 371.543 Q184.068 375.084 184.068 382.214 Q184.068 389.32 185.873 392.885 Q187.702 396.427 191.313 396.427 Q194.947 396.427 196.753 392.885 Q198.581 389.32 198.581 382.214 Q198.581 375.084 196.753 371.543 Q194.947 367.978 191.313 367.978 M191.313 364.274 Q197.123 364.274 200.179 368.881 Q203.257 373.464 203.257 382.214 Q203.257 390.941 200.179 395.547 Q197.123 400.131 191.313 400.131 Q185.503 400.131 182.424 395.547 Q179.369 390.941 179.369 382.214 Q179.369 373.464 182.424 368.881 Q185.503 364.274 191.313 364.274 Z" fill="#000000" fill-rule="nonzero" fill-opacity="1"></path><path clip-path="url(#clip670)" d="M221.475 367.978 Q217.864 367.978 216.035 371.543 Q214.23 375.084 214.23 382.214 Q214.23 389.32 216.035 392.885 Q217.864 396.427 221.475 396.427 Q225.109 396.427 226.915 392.885 Q228.743 389.32 228.743 382.214 Q228.743 375.084 226.915 371.543 Q225.109 367.978 221.475 367.978 M221.475 364.274 Q227.285 364.274 230.341 368.881 Q233.419 373.464 233.419 382.214 Q233.419 390.941 230.341 395.547 Q227.285 400.131 221.475 400.131 Q215.665 400.131 212.586 395.547 Q209.53 390.941 209.53 382.214 Q209.53 373.464 212.586 368.881 Q215.665 364.274 221.475 364.274 Z" fill="#000000" fill-rule="nonzero" fill-opacity="1"></path><path clip-path="url(#clip670)" d="M149.971 205.306 L172.193 205.306 L172.193 207.296 L159.647 239.866 L154.762 239.866 L166.568 209.241 L149.971 209.241 L149.971 205.306 Z" fill="#000000" fill-rule="nonzero" fill-opacity="1"></path><path clip-path="url(#clip670)" d="M181.359 205.306 L199.716 205.306 L199.716 209.241 L185.642 209.241 L185.642 217.713 Q186.66 217.366 187.679 217.204 Q188.697 217.019 189.716 217.019 Q195.503 217.019 198.882 220.19 Q202.262 223.361 202.262 228.778 Q202.262 234.356 198.79 237.458 Q195.318 240.537 188.998 240.537 Q186.822 240.537 184.554 240.167 Q182.308 239.796 179.901 239.056 L179.901 234.356 Q181.984 235.491 184.207 236.046 Q186.429 236.602 188.906 236.602 Q192.91 236.602 195.248 234.495 Q197.586 232.389 197.586 228.778 Q197.586 225.167 195.248 223.06 Q192.91 220.954 188.906 220.954 Q187.031 220.954 185.156 221.37 Q183.304 221.787 181.359 222.667 L181.359 205.306 Z" fill="#000000" fill-rule="nonzero" fill-opacity="1"></path><path clip-path="url(#clip670)" d="M221.475 208.384 Q217.864 208.384 216.035 211.949 Q214.23 215.491 214.23 222.62 Q214.23 229.727 216.035 233.292 Q217.864 236.833 221.475 236.833 Q225.109 236.833 226.915 233.292 Q228.743 229.727 228.743 222.62 Q228.743 215.491 226.915 211.949 Q225.109 208.384 221.475 208.384 M221.475 204.681 Q227.285 204.681 230.341 209.287 Q233.419 213.87 233.419 222.62 Q233.419 231.347 230.341 235.954 Q227.285 240.537 221.475 240.537 Q215.665 240.537 212.586 235.954 Q209.53 231.347 209.53 222.62 Q209.53 213.87 212.586 209.287 Q215.665 204.681 221.475 204.681 Z" fill="#000000" fill-rule="nonzero" fill-opacity="1"></path><path clip-path="url(#clip670)" d="M121.799 76.337 L129.438 76.337 L129.438 49.9714 L121.128 51.638 L121.128 47.3788 L129.392 45.7121 L134.068 45.7121 L134.068 76.337 L141.707 76.337 L141.707 80.2721 L121.799 80.2721 L121.799 76.337 Z" fill="#000000" fill-rule="nonzero" fill-opacity="1"></path><path clip-path="url(#clip670)" d="M161.151 48.7908 Q157.54 48.7908 155.711 52.3556 Q153.906 55.8973 153.906 63.0268 Q153.906 70.1333 155.711 73.6981 Q157.54 77.2397 161.151 77.2397 Q164.785 77.2397 166.591 73.6981 Q168.42 70.1333 168.42 63.0268 Q168.42 55.8973 166.591 52.3556 Q164.785 48.7908 161.151 48.7908 M161.151 45.0871 Q166.961 45.0871 170.017 49.6936 Q173.096 54.2769 173.096 63.0268 Q173.096 71.7537 170.017 76.3601 Q166.961 80.9434 161.151 80.9434 Q155.341 80.9434 152.262 76.3601 Q149.207 71.7537 149.207 63.0268 Q149.207 54.2769 152.262 49.6936 Q155.341 45.0871 161.151 45.0871 Z" fill="#000000" fill-rule="nonzero" fill-opacity="1"></path><path clip-path="url(#clip670)" d="M191.313 48.7908 Q187.702 48.7908 185.873 52.3556 Q184.068 55.8973 184.068 63.0268 Q184.068 70.1333 185.873 73.6981 Q187.702 77.2397 191.313 77.2397 Q194.947 77.2397 196.753 73.6981 Q198.581 70.1333 198.581 63.0268 Q198.581 55.8973 196.753 52.3556 Q194.947 48.7908 191.313 48.7908 M191.313 45.0871 Q197.123 45.0871 200.179 49.6936 Q203.257 54.2769 203.257 63.0268 Q203.257 71.7537 200.179 76.3601 Q197.123 80.9434 191.313 80.9434 Q185.503 80.9434 182.424 76.3601 Q179.369 71.7537 179.369 63.0268 Q179.369 54.2769 182.424 49.6936 Q185.503 45.0871 191.313 45.0871 Z" fill="#000000" fill-rule="nonzero" fill-opacity="1"></path><path clip-path="url(#clip670)" d="M221.475 48.7908 Q217.864 48.7908 216.035 52.3556 Q214.23 55.8973 214.23 63.0268 Q214.23 70.1333 216.035 73.6981 Q217.864 77.2397 221.475 77.2397 Q225.109 77.2397 226.915 73.6981 Q228.743 70.1333 228.743 63.0268 Q228.743 55.8973 226.915 52.3556 Q225.109 48.7908 221.475 48.7908 M221.475 45.0871 Q227.285 45.0871 230.341 49.6936 Q233.419 54.2769 233.419 63.0268 Q233.419 71.7537 230.341 76.3601 Q227.285 80.9434 221.475 80.9434 Q215.665 80.9434 212.586 76.3601 Q209.53 71.7537 209.53 63.0268 Q209.53 54.2769 212.586 49.6936 Q215.665 45.0871 221.475 45.0871 Z" fill="#000000" fill-rule="nonzero" fill-opacity="1"></path><path clip-path="url(#clip670)" d="M81.3021 589.957 Q81.0445 589.957 79.3698 589.088 Q77.6629 588.218 71.576 585.159 Q65.4569 582.099 59.0479 578.943 L36.1817 567.574 Q34.7325 566.769 34.7325 565.738 Q34.7325 564.804 35.3122 564.386 Q35.8919 563.967 39.7888 562.035 Q41.6889 561.036 42.9128 560.457 L80.2394 541.809 Q81.0445 541.487 81.3021 541.455 Q81.9463 541.455 81.9463 542.582 L81.9463 588.218 Q81.9463 589.957 81.3021 589.957 M76.9222 585.609 L76.9222 550.119 L41.3025 567.864 L76.9222 585.609 Z" fill="#000000" fill-rule="nonzero" fill-opacity="1"></path><path clip-path="url(#clip670)" d="M38.887 487.487 L50.2879 488.808 Q51.3185 488.904 51.6406 489.065 Q51.9304 489.226 51.9304 489.741 Q51.9304 490.128 51.705 490.353 Q51.4473 490.547 51.1575 490.547 Q50.9964 490.547 50.5778 490.514 Q50.1591 490.482 49.9658 490.482 Q47.9691 490.192 46.4554 490.192 Q43.6535 490.192 42.1398 491.03 Q40.5939 491.867 39.8854 494.025 Q39.1447 496.183 39.1447 500.241 L39.1447 509.516 Q39.1447 511.641 39.5311 512.157 Q39.9176 512.64 41.7211 513.091 L57.5986 517.052 L57.5986 510.836 Q57.5986 508.517 57.3088 507.133 Q57.0189 505.716 56.2138 504.782 Q55.3764 503.815 54.2492 503.3 Q53.122 502.753 51.0931 502.205 Q50.4167 502.044 50.1591 501.883 Q49.9014 501.69 49.9014 501.271 Q49.9014 500.949 50.1269 500.724 Q50.3201 500.498 50.61 500.498 L66.0366 504.266 Q66.8095 504.46 67.0994 504.653 Q67.357 504.846 67.357 505.232 Q67.357 505.651 67.1316 505.877 Q66.9061 506.102 66.6485 506.102 Q66.3908 506.102 65.9077 505.909 Q63.8144 505.426 62.6872 505.426 Q62.043 505.426 61.721 505.49 Q61.3989 505.522 60.948 505.812 Q60.465 506.07 60.2395 506.65 Q60.0141 507.229 59.853 508.324 Q59.6598 509.419 59.6598 511.062 L59.6598 517.567 L77.6629 522.076 Q78.8545 522.398 79.1766 522.398 Q79.5308 522.398 79.6597 522.237 Q79.7563 522.044 79.8207 521.529 Q79.9173 520.949 79.9173 520.079 L79.9173 510.45 Q79.9173 508.324 79.7241 506.617 Q79.5308 504.91 79.0477 503.493 Q78.5647 502.044 78.0172 500.949 Q77.4697 499.854 76.4713 498.824 Q75.4407 497.793 74.5389 497.084 Q73.6049 496.344 72.0269 495.474 Q70.4488 494.605 69.1605 493.993 Q67.8401 493.381 65.7145 492.447 Q64.9416 492.189 64.9416 491.577 Q64.9416 491.223 65.1348 491.03 Q65.2958 490.836 65.4569 490.804 L65.6501 490.804 Q66.262 490.998 66.5841 491.126 L80.8191 497.181 Q81.6242 497.535 81.7852 497.825 Q81.9463 498.115 81.9463 499.242 L81.9463 533.477 Q81.9463 534.25 81.9141 534.572 Q81.8819 534.862 81.7208 535.087 Q81.5276 535.313 81.1411 535.313 Q80.5292 535.313 80.2716 535.055 Q79.9817 534.797 79.9495 534.508 Q79.9173 534.218 79.9173 533.477 Q79.9173 531.867 79.8207 530.901 Q79.7241 529.934 79.5952 529.322 Q79.4342 528.678 78.9833 528.356 Q78.5324 528.002 78.146 527.841 Q77.7273 527.68 76.7933 527.455 L41.9144 518.759 Q40.7228 518.437 40.3363 518.437 Q39.9176 518.437 39.66 518.727 Q39.4023 518.984 39.3057 519.693 Q39.1769 520.401 39.1769 520.981 Q39.1447 521.529 39.1447 522.72 Q39.1447 523.493 39.1125 523.815 Q39.0803 524.105 38.9192 524.331 Q38.7582 524.556 38.4039 524.556 Q37.5022 524.556 37.3089 524.17 Q37.0835 523.751 37.0835 522.591 L37.0835 489.291 Q37.0835 487.97 37.3734 487.68 Q37.631 487.358 38.887 487.487 Z" fill="#000000" fill-rule="nonzero" fill-opacity="1"></path><path clip-path="url(#clip670)" d="M98.4357 452.265 L32.4781 452.265 L32.4781 442.313 L33.9917 442.313 L33.9917 447.853 L96.922 447.853 L96.922 442.313 L98.4357 442.313 L98.4357 452.265 Z" fill="#000000" fill-rule="nonzero" fill-opacity="1"></path><path clip-path="url(#clip670)" d="M81.9463 434.117 L79.9173 434.117 Q79.9173 430.607 79.4986 429.801 Q79.0477 428.964 76.9222 428.964 L42.6229 428.964 Q40.1753 428.964 39.5634 429.834 Q38.9514 430.671 38.9514 434.117 L36.8903 434.117 L36.1817 424.616 L67.8401 424.616 L59.7886 415.309 Q58.5326 413.859 57.2122 413.859 Q55.6985 413.859 55.5697 415.76 L53.5085 415.76 Q53.7017 412.99 53.7017 408.385 Q53.7017 405.679 53.5085 403.779 L55.5697 403.779 Q55.7629 407.934 59.1123 412.088 Q59.853 413.022 61.7854 415.244 Q63.6855 417.434 63.8788 417.434 Q63.9432 417.434 64.1042 417.37 Q64.2652 417.273 64.3941 417.144 Q64.5229 417.016 64.5873 417.016 L76.4069 408.642 Q78.7901 406.935 79.3698 405.679 Q79.9173 404.423 79.9173 402.233 L81.9463 402.233 Q81.753 405.067 81.753 407.998 Q81.753 409.576 81.9463 415.116 L79.9173 415.116 Q79.9173 412.732 78.3714 412.732 Q77.3086 412.732 69.9335 418.078 Q69.4182 418.465 68.291 419.334 Q67.0994 420.14 66.5197 420.591 L70.1267 424.809 L76.9222 424.809 Q79.0477 424.809 79.4986 424.004 Q79.9173 423.167 79.9173 419.657 L81.9463 419.657 Q81.753 423.618 81.753 426.903 Q81.753 427.579 81.9463 434.117 Z" fill="#000000" fill-rule="nonzero" fill-opacity="1"></path><path clip-path="url(#clip670)" d="M74.5711 396.799 Q72.6066 396.799 71.6726 395.639 Q70.7386 394.48 70.7386 393.095 Q70.7386 391.646 71.737 390.551 Q72.7032 389.423 74.4423 389.423 Q78.1138 389.423 78.1138 393.578 Q78.1138 393.61 78.1138 393.642 Q81.9463 391.259 81.9463 386.364 Q81.9463 383.594 79.241 381.597 Q76.5357 379.601 72.1879 379.601 L42.1076 379.601 Q40.7228 379.601 40.2075 379.858 Q39.66 380.116 39.3057 381.501 Q38.9514 382.886 38.9514 386.042 L38.9514 388.425 L36.8903 388.425 Q37.0835 385.913 37.0835 377.346 Q37.0835 373.192 36.8903 368.844 L38.9514 368.844 Q38.9514 372.193 39.3379 373.063 Q39.7244 373.9 41.6567 373.9 L70.9319 373.9 Q73.3151 373.9 73.8304 373.965 Q77.7273 374.544 80.5614 377.958 Q83.3955 381.372 83.3955 386.235 Q83.3955 390.647 80.8513 393.739 Q78.2748 396.799 74.5711 396.799 Z" fill="#000000" fill-rule="nonzero" fill-opacity="1"></path><path clip-path="url(#clip670)" d="M97.5017 363.309 Q97.1796 363.309 96.4711 363.052 L34.2494 339.767 Q34.185 339.767 33.8307 339.606 Q33.4764 339.445 33.251 339.348 Q32.9934 339.251 32.8001 339.058 Q32.6069 338.833 32.6069 338.575 Q32.6069 337.931 33.412 337.931 Q33.4764 337.931 34.2494 338.124 L96.5355 361.473 Q97.6627 361.86 97.9848 362.118 Q98.3068 362.343 98.3068 362.729 Q98.3068 363.309 97.5017 363.309 Z" fill="#000000" fill-rule="nonzero" fill-opacity="1"></path><path clip-path="url(#clip670)" d="M81.9463 330.649 L79.9173 330.649 Q79.9173 327.139 79.4986 326.333 Q79.0477 325.528 76.9222 325.528 L59.2411 325.528 Q56.7935 325.528 56.1816 326.398 Q55.5697 327.235 55.5697 330.649 L53.5085 330.649 L52.8 321.374 L59.7242 321.374 Q52.8 318.282 52.8 311.615 Q52.8 303.886 59.2411 302.823 Q56.7291 301.696 54.7645 299.345 Q52.8 296.962 52.8 293.258 Q52.8 288.298 55.2476 286.334 Q56.8901 284.885 58.7258 284.595 Q60.5616 284.305 65.328 284.305 L77.9205 284.305 Q79.3054 284.24 79.6274 283.178 Q79.9173 282.115 79.9173 279.152 L81.9463 279.152 Q81.753 285.883 81.753 286.527 Q81.753 287.042 81.9463 293.999 L79.9173 293.999 Q79.9173 290.488 79.4986 289.683 Q79.0477 288.846 76.9222 288.846 L61.56 288.846 Q58.2105 288.846 56.246 289.876 Q54.2492 290.907 54.2492 293.741 Q54.2492 297.155 57.1155 299.892 Q59.9819 302.63 64.8127 302.63 L76.9222 302.63 Q79.0477 302.63 79.4986 301.825 Q79.9173 300.987 79.9173 297.477 L81.9463 297.477 Q81.753 304.208 81.753 304.884 Q81.753 305.4 81.9463 312.324 L79.9173 312.324 Q79.9173 308.813 79.4986 308.008 Q79.0477 307.171 76.9222 307.171 L61.56 307.171 Q58.2105 307.171 56.246 308.202 Q54.2492 309.232 54.2492 312.066 Q54.2492 315.48 57.1155 318.218 Q59.9819 320.955 64.8127 320.955 L76.9222 320.955 Q79.0477 320.955 79.4986 320.15 Q79.9173 319.313 79.9173 315.834 L81.9463 315.834 Q81.753 322.565 81.753 323.209 Q81.753 323.725 81.9463 330.649 Z" fill="#000000" fill-rule="nonzero" fill-opacity="1"></path><path clip-path="url(#clip670)" d="M78.4036 270.865 Q74.088 275.213 67.8401 275.213 Q61.56 275.213 56.9867 270.961 Q52.3813 266.678 52.3813 260.559 Q52.3813 254.569 56.9545 250.285 Q61.4955 245.97 67.8401 245.97 Q74.0558 245.97 78.3714 250.317 Q82.687 254.633 82.687 260.623 Q82.687 266.485 78.4036 270.865 M67.2926 269.738 Q73.7016 269.738 76.6001 268.063 Q81.0123 265.486 81.0123 260.559 Q81.0123 258.111 79.6919 256.082 Q78.3714 254.021 76.1492 252.894 Q73.2507 251.445 67.2926 251.445 Q60.948 251.445 58.1461 253.184 Q53.8628 255.76 53.8628 260.623 Q53.8628 262.749 54.99 264.842 Q56.085 266.903 58.275 268.16 Q61.1735 269.738 67.2926 269.738 Z" fill="#000000" fill-rule="nonzero" fill-opacity="1"></path><path clip-path="url(#clip670)" d="M81.9463 242.552 L79.9173 242.552 Q79.9173 239.042 79.4986 238.237 Q79.0477 237.432 76.9222 237.432 L42.6229 237.432 Q40.1753 237.432 39.5634 238.301 Q38.9514 239.139 38.9514 242.552 L36.8903 242.552 L36.1817 233.084 L76.9222 233.084 Q79.0477 233.084 79.4986 232.247 Q79.9173 231.409 79.9173 227.931 L81.9463 227.931 Q81.9463 228.736 81.8819 230.411 Q81.8174 232.086 81.7852 233.309 Q81.753 234.533 81.753 235.242 Q81.753 236.015 81.9463 242.552 Z" fill="#000000" fill-rule="nonzero" fill-opacity="1"></path><path clip-path="url(#clip670)" d="M96.922 224.468 L96.922 218.929 L33.9917 218.929 L33.9917 224.468 L32.4781 224.468 L32.4781 214.517 L98.4357 214.517 L98.4357 224.468 L96.922 224.468 Z" fill="#000000" fill-rule="nonzero" fill-opacity="1"></path><polyline clip-path="url(#clip672)" style="stroke:#009af9; stroke-linecap:round; stroke-linejoin:round; stroke-width:10; stroke-opacity:1; fill:none" points="55.1666,-6.28237e+07 63.0637,-4.1943e+06 70.9608,-4.1943e+06 110.446,1.06807e+06 118.343,4.1943e+06 126.241,4.1943e+06 134.138,4.1943e+06 142.035,4.1943e+06 149.932,4.1943e+06 157.829,4.1943e+06 165.726,4.1943e+06 173.623,3.43552e+06 181.52,2.57241e+06 189.417,1.84026e+06 197.315,1.25102e+06 205.212,798749 213.109,467131 221.006,235133 228.903,80994.7 236.8,-15297.3 244.697,-70707.9 252.594,-98710.1 260.491,-109398 268.388,-109917 276.286,-105030 284.183,-97701.5 292.08,-89623.7 299.977,-81646.3 307.874,-74108.5 315.771,-67073.3 323.668,-60481.7 331.565,-54244.6 339.462,-48290.3 347.36,-42582.1 355.257,-37118.8 363.154,-31926.1 371.051,-27044.9 378.948,-22520.1 386.845,-18392.2 394.742,-14690.6 402.639,-11431.2 410.536,-8615.21 418.433,-6230.15 426.331,-4252.23 434.228,-2648.84 442.125,-1381.5 450.022,-408.52 457.919,312.571 465.816,823.149 473.713,1162.03 481.61,1364.5 489.507,1461.7 497.405,1480.44 505.302,1443.2 513.199,1368.33 521.096,1270.46 528.993,1160.88 536.89,1048.07 544.787,938.078 552.684,835.046 560.581,741.561 568.478,659.028 576.376,587.966 584.273,528.259 592.17,479.359 600.067,440.443 607.964,410.533 615.861,388.59 623.758,373.572 631.655,364.476 639.552,360.372 647.45,360.41 655.347,363.829 663.244,369.961 671.141,378.22 679.038,388.103 686.935,399.18 694.832,411.086 702.729,423.516 710.626,436.213 718.523,448.97 726.421,461.614 734.318,474.01 742.215,486.049 750.112,497.649 758.009,508.751 765.906,519.312 773.803,529.308 781.7,538.724 789.597,547.562 797.495,555.827 805.392,563.538 813.289,570.714 821.186,577.383 829.083,583.574 836.98,589.319 844.877,594.651 852.774,599.604 860.671,604.212 868.568,608.508 876.466,612.523 884.363,616.287 892.26,619.829 900.157,623.175 908.054,626.348 915.951,629.37 923.848,632.261 931.745,635.038 939.642,637.714 947.54,640.304 955.437,642.817 963.334,645.263 971.231,647.649 979.128,649.98 987.025,652.261 994.922,654.495 1002.82,656.684 1010.72,658.829 1018.61,660.931 1026.51,662.989 1034.41,665.004 1042.3,666.973 1050.2,668.896 1058.1,670.771 1066,672.598 1073.89,674.375 1081.79,676.101 1089.69,677.774 1097.58,679.394 1105.48,680.96 1113.38,682.471 1121.28,683.928 1129.17,685.33 1137.07,686.678 1144.97,687.971 1152.86,689.211 1160.76,690.398 1168.66,691.534 1176.56,692.62 1184.45,693.657 1192.35,694.647 1200.25,695.591 1208.14,696.492 1216.04,697.35 1223.94,698.168 1231.84,698.948 1239.73,699.692 1247.63,700.401 1255.53,701.078 1263.42,701.724 1271.32,702.341 1279.22,702.93 1287.12,703.494 1295.01,704.034 1302.91,704.551 1310.81,705.048 1318.7,705.524 1326.6,705.982 1334.5,706.422 1342.39,706.845 1350.29,707.253 1358.19,707.647 1366.09,708.026 1373.98,708.392 1381.88,708.745 1389.78,709.086 1397.67,709.415 1405.57,709.732 1413.47,710.039 1421.37,710.335 1429.26,710.621 1437.16,710.896 1445.06,711.161 1452.95,711.417 1460.85,711.662 1468.75,711.898 1476.65,712.124 1484.54,712.34 1492.44,712.547 1500.34,712.744 1508.23,712.932 1516.13,713.111 1524.03,713.28 1531.93,713.441 1539.82,713.591 1547.72,713.733 1555.62,713.866 1563.51,713.99 1571.41,714.105 1579.31,714.212 1587.21,714.31 1595.1,714.399 1603,714.481 1610.9,714.554 1618.79,714.619 1626.69,714.676 1634.59,714.726 1642.48,714.769 1650.38,714.804 1658.28,714.832 1666.18,714.854 1674.07,714.869 1681.97,714.877 1689.87,714.88 1697.76,714.876 1705.66,714.867 1713.56,714.853 1721.46,714.833 1729.35,714.808 1737.25,714.779 1745.15,714.745 1753.04,714.707 1760.94,714.664 1768.84,714.618 1776.74,714.568 1784.63,714.515 1792.53,714.459 1800.43,714.399 1808.32,714.337 1816.22,714.272 1824.12,714.204 1832.02,714.135 1839.91,714.063 1847.81,713.989 1855.71,713.913 1863.6,713.836 1871.5,713.757 1879.4,713.677 1887.3,713.596 1895.19,713.513 1903.09,713.43 1910.99,713.346 1918.88,713.261 1926.78,713.175 1934.68,713.089 1942.57,713.003 1950.47,712.916 1958.37,712.829 1966.27,712.742 1974.16,712.654 1982.06,712.567 1989.96,712.48 1997.85,712.393 2005.75,712.306 2013.65,712.219 2021.55,712.133 2029.44,712.047 2037.34,711.961 2045.24,711.876 2053.13,711.791 2061.03,711.707 2068.93,711.623 2076.83,711.54 2084.72,711.457 2092.62,711.375 2100.52,711.294 2108.41,711.213 2116.31,711.133 2124.21,711.054 2132.11,710.976 2140,710.898 2147.9,710.821 2155.8,710.744 2163.69,710.669 2171.59,710.594 2179.49,710.52 2187.39,710.447 2195.28,710.374 2203.18,710.302 2211.08,710.231 2218.97,710.161 2226.87,710.092 2234.77,710.023 2242.66,709.955 2250.56,709.888 2258.46,709.822 2266.36,709.756 2274.25,709.691 2282.15,709.627 2290.05,709.564 2297.94,709.501 2305.84,709.439 2313.74,709.378 2321.64,709.318 2329.53,709.258 2337.43,709.199 2345.33,709.14 2353.22,709.083 2361.12,709.026 2369.02,708.969 2376.92,708.914 2384.81,708.859 2392.71,708.804 2400.61,708.75 2408.5,708.697 2416.4,708.644 2424.3,708.592 2432.2,708.541 2440.09,708.49 2447.99,708.44 2455.89,708.39 2463.78,708.341 2471.68,708.293 2479.58,708.245 2487.48,708.197 2495.37,708.15 2503.27,708.104 2511.17,708.058 2519.06,708.012 2526.96,707.967 2534.86,707.923 2542.75,707.879 2550.65,707.835 2558.55,707.792 2566.45,707.75 2574.34,707.707 2582.24,707.666 2590.14,707.624 2598.03,707.584 2605.93,707.543 2613.83,707.503 2621.73,707.464 2629.62,707.424 2637.52,707.386 2645.42,707.347 2653.31,707.309 2661.21,707.272 2669.11,707.234 2677.01,707.197 2684.9,707.161 2692.8,707.125 2700.7,707.089 2708.59,707.054 2716.49,707.019 2724.39,706.984 2732.29,706.949 2740.18,706.915 2748.08,706.882 2755.98,706.848 2763.87,706.815 2771.77,706.782 2779.67,706.75 2787.57,706.718 2795.46,706.686 2803.36,706.654 2811.26,706.623 2819.15,706.592 2827.05,706.562 2834.95,706.531 2842.84,706.501 2850.74,706.471 2858.64,706.442 2866.54,706.413 2874.43,706.384 2882.33,706.355 2890.23,706.326 2898.12,706.298 2906.02,706.27 2913.92,706.243 2921.82,706.215 2929.71,706.188 2937.61,706.161 2945.51,706.134 2953.4,706.108 2961.3,706.082 2969.2,706.056 2977.1,706.03 2984.99,706.004 2992.89,705.979 3000.79,705.954 3008.68,705.929 3016.58,705.905 3024.48,705.88 3032.38,705.856 3040.27,705.832 3048.17,705.808 3056.07,705.785 3063.96,705.761 3071.86,705.738 3079.76,705.715 3087.66,705.692 3095.55,705.67 3103.45,705.647 3111.35,705.625 3119.24,705.603 3127.14,705.581 3135.04,705.56 3142.93,705.538 3150.83,705.517 3158.73,705.496 3166.63,705.475 3174.52,705.454 3182.42,705.434 3190.32,705.413 3198.21,705.393 3206.11,705.373 3214.01,705.353 3221.91,705.333 3229.8,705.313 3237.7,705.294 3245.6,705.275 3253.49,705.256 3261.39,705.237 3269.29,705.218 3277.19,705.199 3285.08,705.181 3292.98,705.162 3300.88,705.144 3308.77,705.126 3316.67,705.108 3324.57,705.09 3332.47,705.072 3340.36,705.055 3348.26,705.037 3356.16,705.02 3364.05,705.003 3371.95,704.986 3379.85,704.969 3387.75,704.952 3395.64,704.936 3403.54,704.919 3411.44,704.903 3419.33,704.887 3427.23,704.871 3435.13,704.855 3443.02,704.839 3450.92,704.823 3458.82,704.807 3466.72,704.792 3474.61,704.776 3482.51,704.761 3490.41,704.746 3498.3,704.731 3506.2,704.716 3514.1,704.701 3522,704.686 3529.89,704.671 3537.79,704.657 3545.69,704.642 3553.58,704.628 3561.48,704.614 3569.38,704.6 3577.28,704.586 3585.17,704.572 3593.07,704.558 3600.97,704.544 3608.86,704.531 3616.76,704.517 3624.66,704.504 3632.56,704.49 3640.45,704.477 3648.35,704.464 3656.25,704.451 3664.14,704.438 3672.04,704.425 3679.94,704.412 3687.84,704.399 3695.73,704.387 3703.63,704.374 3711.53,704.361 3719.42,704.349 3727.32,704.337 3735.22,704.325 3743.11,704.312 3751.01,704.3 3758.91,704.288 3766.81,704.277 3774.7,704.265 3782.6,704.253 3790.5,704.241 3798.39,704.23 3806.29,704.218 3814.19,704.207 3822.09,704.195 3829.98,704.184 3837.88,704.173 3845.78,704.162 3853.67,704.151 3861.57,704.14 3869.47,704.129 3877.37,704.118 3885.26,704.107 3893.16,704.097 3901.06,704.086 3908.95,704.075 3916.85,704.065 3924.75,704.054 3932.65,704.044 3940.54,704.034 3948.44,704.024 3956.34,704.013 3964.23,704.003 3972.13,703.993 3980.03,703.983 3987.93,703.973 3995.82,703.963 4003.72,703.954 4011.62,703.944 4019.51,703.934 4027.41,703.925 4035.31,703.915 4043.2,703.906 4051.1,703.896 4059,703.887 4066.9,703.878 4074.79,703.868 4082.69,703.859 4090.59,703.85 4098.48,703.841 4106.38,703.832 4114.28,703.823 4122.18,703.814 4130.07,703.805 4137.97,703.796 4145.87,703.788 4153.76,703.779 4161.66,703.77 4169.56,703.762 4177.46,703.753 4185.35,703.745 4193.25,703.736 4201.15,703.728 4209.04,703.719 4216.94,703.711 4224.84,703.703 4232.74,703.695 4240.63,703.686 4248.53,703.678 4256.43,703.67 4264.32,703.662 4272.22,703.654 4280.12,703.646 4288.02,703.639 4295.91,703.631 4303.81,703.623 4311.71,703.615 4319.6,703.608 4327.5,703.6 4335.4,703.592 4343.29,703.585 4351.19,703.577 4359.09,703.57 4366.99,703.562 4374.88,703.555 4382.78,703.548 4390.68,703.54 4398.57,703.533 4406.47,703.526 4414.37,703.519 4422.27,703.512 4430.16,703.505 4438.06,703.498 4445.96,703.491 4453.85,703.484 4461.75,703.477 4469.65,703.47 4477.55,703.463 4485.44,703.456 4493.34,703.449 4501.24,703.443 4509.13,703.436 4517.03,703.429 4524.93,703.423 4532.83,703.416 4540.72,703.409 4548.62,703.403 4556.52,703.396 4564.41,703.39 4572.31,703.384 4580.21,703.377 4588.11,703.371 4596,703.365 4603.9,703.358 4611.8,703.352 4619.69,703.346 4627.59,703.34 4635.49,703.334 4643.38,703.328 4651.28,703.321 4659.18,703.315 4667.08,703.309 4674.97,703.303 4682.87,703.297 4690.77,703.292 4698.66,703.286 4706.56,703.28 4714.46,703.274 4722.36,703.268 4730.25,703.263 4738.15,703.257 4746.05,703.251 4753.94,703.245 4761.84,703.24 4769.74,703.234 4777.64,703.229 4785.53,703.223 4793.43,703.218 4801.33,703.212 4809.22,703.207 4817.12,703.201 4825.02,703.196 4832.92,703.19 4840.81,703.185 4848.71,703.18 4856.61,703.174 4864.5,703.169 4872.4,703.164 4880.3,703.159 4888.2,703.154 4896.09,703.148 4903.99,703.143 4911.89,703.138 4919.78,703.133 4927.68,703.128 4935.58,703.123 4943.47,703.118 4951.37,703.113 4959.27,703.108 4967.17,703.103 4975.06,703.098 4982.96,703.093 4990.86,703.089 4998.75,703.084 5006.65,703.079 5014.55,703.074 5022.45,703.069 5030.34,703.065 5038.24,703.06 5046.14,703.055 5054.03,703.051 5061.93,703.046 5069.83,703.041 5077.73,703.037 5085.62,703.032 5093.52,703.028 5101.42,703.023 5109.31,703.019 5117.21,703.014 5125.11,703.01 5133.01,703.005 5140.9,703.001 5148.8,702.996 5156.7,702.992 5164.59,702.988 5172.49,702.983 5180.39,702.979 5188.29,702.975 5196.18,702.97 5204.08,702.966 5211.98,702.962 5219.87,702.958 5227.77,702.954 5235.67,702.949 5243.56,702.945 5251.46,702.941 5259.36,702.937 5267.26,702.933 5275.15,702.929 5283.05,702.925 5290.95,702.921 5298.84,702.917 5306.74,702.913 5314.64,702.909 5322.54,702.905 5330.43,702.901 5338.33,702.897 5346.23,702.893 5354.12,702.889 5362.02,702.885 5369.92,702.881 5377.82,702.878 5385.71,702.874 5393.61,702.87 5401.51,702.866 5409.4,702.862 5417.3,702.859 5425.2,702.855 5433.1,702.851 5440.99,702.848 5448.89,702.844 5456.79,702.84 5464.68,702.837 5472.58,702.833 5480.48,702.829 5488.38,702.826 5496.27,702.822 5504.17,702.819 5512.07,702.815 5519.96,702.812 5527.86,702.808 5535.76,702.804 5543.65,702.801 5551.55,702.798 5559.45,702.794 5567.35,702.791 5575.24,702.787 5583.14,702.784 5591.04,702.78 5598.93,702.777 5606.83,702.774 5614.73,702.77 5622.63,702.767 5630.52,702.764 5638.42,702.76 5646.32,702.757 5654.21,702.754 5662.11,702.751 5670.01,702.747 5677.91,702.744 5685.8,702.741 5693.7,702.738 5701.6,702.734 5709.49,702.731 5717.39,702.728 5725.29,702.725 5733.19,702.722 5741.08,702.719 5748.98,702.716 5756.88,702.712 5764.77,702.709 5772.67,702.706 5780.57,702.703 5788.47,702.7 5796.36,702.697 5804.26,702.694 5812.16,702.691 5820.05,702.688 5827.95,702.685 5835.85,702.682 5843.74,702.679 5851.64,702.676 5859.54,702.673 5867.44,702.67 5875.33,702.668 5883.23,702.665 5891.13,702.662 5899.02,702.659 5906.92,702.656 5914.82,702.653 5922.72,702.65 5930.61,702.647 5938.51,702.645 5946.41,702.642 5954.3,702.639 5962.2,702.636 5970.1,702.634 5978,702.631 5985.89,702.628 5993.79,702.625 6001.69,702.623 6009.58,702.62 6017.48,702.617 6025.38,702.614 6033.28,702.612 6041.17,702.609 6049.07,702.606 6056.97,702.604 6064.86,702.601 6072.76,702.599 6080.66,702.596 "></polyline>
<polyline clip-path="url(#clip672)" style="stroke:#e26f46; stroke-linecap:round; stroke-linejoin:round; stroke-width:10; stroke-opacity:1; fill:none" points="55.1666,71942.6 63.0637,-152297 70.9608,-291223 110.446,-299430 118.343,-252666 126.241,-206953 134.138,-165216 142.035,-128947 149.932,-98628.1 157.829,-74084.5 165.726,-54757.1 173.623,-39905.3 181.52,-28742.2 189.417,-20520.7 197.315,-14579.6 205.212,-10362.3 213.109,-7418.96 221.006,-5397.61 228.903,-4030.42 236.8,-3118.67 244.697,-2518.11 252.594,-2126.23 260.491,-1871.51 268.388,-1704.99 276.286,-1593.77 284.183,-1516.08 292.08,-1457.85 299.977,-1410.14 307.874,-1367.43 315.771,-1326.44 323.668,-1285.29 331.565,-1243.01 339.462,-1199.19 347.36,-1153.76 355.257,-1106.82 363.154,-1058.59 371.051,-1009.34 378.948,-959.352 386.845,-908.897 394.742,-858.237 402.639,-807.61 410.536,-757.23 418.433,-707.282 426.331,-657.929 434.228,-609.309 442.125,-561.535 450.022,-514.703 457.919,-468.888 465.816,-424.149 473.713,-380.53 481.61,-338.062 489.507,-296.766 497.405,-256.651 505.302,-217.722 513.199,-179.973 521.096,-143.397 528.993,-107.978 536.89,-73.7016 544.787,-40.5475 552.684,-8.49496 560.581,22.4779 568.478,52.3937 576.376,81.2754 584.273,109.146 592.17,136.027 600.067,161.942 607.964,186.911 615.861,210.955 623.758,234.095 631.655,256.35 639.552,277.739 647.45,298.282 655.347,317.995 663.244,336.897 671.141,355.006 679.038,372.339 686.935,388.914 694.832,404.749 702.729,419.862 710.626,434.27 718.523,447.993 726.421,461.05 734.318,473.459 742.215,485.24 750.112,496.413 758.009,506.999 765.906,517.019 773.803,526.492 781.7,535.441 789.597,543.887 797.495,551.852 805.392,559.357 813.289,566.424 821.186,573.075 829.083,579.331 836.98,585.214 844.877,590.744 852.774,595.943 860.671,600.83 868.568,605.426 876.466,609.748 884.363,613.817 892.26,617.649 900.157,621.263 908.054,624.673 915.951,627.897 923.848,630.949 931.745,633.843 939.642,636.592 947.54,639.208 955.437,641.704 963.334,644.09 971.231,646.375 979.128,648.57 987.025,650.682 994.922,652.72 1002.82,654.689 1010.72,656.596 1018.61,658.447 1026.51,660.246 1034.41,661.999 1042.3,663.708 1050.2,665.377 1058.1,667.009 1066,668.606 1073.89,670.17 1081.79,671.703 1089.69,673.206 1097.58,674.68 1105.48,676.126 1113.38,677.544 1121.28,678.934 1129.17,680.297 1137.07,681.633 1144.97,682.942 1152.86,684.223 1160.76,685.477 1168.66,686.702 1176.56,687.9 1184.45,689.068 1192.35,690.208 1200.25,691.318 1208.14,692.398 1216.04,693.449 1223.94,694.469 1231.84,695.459 1239.73,696.419 1247.63,697.347 1255.53,698.246 1263.42,699.113 1271.32,699.95 1279.22,700.756 1287.12,701.532 1295.01,702.278 1302.91,702.994 1310.81,703.68 1318.7,704.338 1326.6,704.966 1334.5,705.566 1342.39,706.138 1350.29,706.683 1358.19,707.201 1366.09,707.693 1373.98,708.159 1381.88,708.601 1389.78,709.017 1397.67,709.41 1405.57,709.78 1413.47,710.128 1421.37,710.453 1429.26,710.758 1437.16,711.042 1445.06,711.307 1452.95,711.552 1460.85,711.779 1468.75,711.989 1476.65,712.181 1484.54,712.357 1492.44,712.517 1500.34,712.661 1508.23,712.791 1516.13,712.908 1524.03,713.011 1531.93,713.101 1539.82,713.178 1547.72,713.245 1555.62,713.299 1563.51,713.344 1571.41,713.378 1579.31,713.403 1587.21,713.418 1595.1,713.425 1603,713.423 1610.9,713.414 1618.79,713.397 1626.69,713.373 1634.59,713.343 1642.48,713.306 1650.38,713.264 1658.28,713.216 1666.18,713.164 1674.07,713.106 1681.97,713.044 1689.87,712.978 1697.76,712.908 1705.66,712.834 1713.56,712.757 1721.46,712.677 1729.35,712.595 1737.25,712.51 1745.15,712.422 1753.04,712.333 1760.94,712.242 1768.84,712.149 1776.74,712.055 1784.63,711.96 1792.53,711.864 1800.43,711.767 1808.32,711.669 1816.22,711.571 1824.12,711.472 1832.02,711.373 1839.91,711.274 1847.81,711.176 1855.71,711.077 1863.6,710.979 1871.5,710.881 1879.4,710.783 1887.3,710.687 1895.19,710.59 1903.09,710.495 1910.99,710.401 1918.88,710.307 1926.78,710.214 1934.68,710.123 1942.57,710.032 1950.47,709.943 1958.37,709.855 1966.27,709.768 1974.16,709.682 1982.06,709.598 1989.96,709.515 1997.85,709.433 2005.75,709.353 2013.65,709.274 2021.55,709.196 2029.44,709.12 2037.34,709.045 2045.24,708.972 2053.13,708.9 2061.03,708.829 2068.93,708.76 2076.83,708.692 2084.72,708.626 2092.62,708.561 2100.52,708.497 2108.41,708.435 2116.31,708.374 2124.21,708.314 2132.11,708.256 2140,708.199 2147.9,708.143 2155.8,708.088 2163.69,708.035 2171.59,707.982 2179.49,707.931 2187.39,707.882 2195.28,707.833 2203.18,707.785 2211.08,707.739 2218.97,707.693 2226.87,707.649 2234.77,707.605 2242.66,707.563 2250.56,707.521 2258.46,707.48 2266.36,707.441 2274.25,707.402 2282.15,707.364 2290.05,707.327 2297.94,707.29 2305.84,707.255 2313.74,707.22 2321.64,707.186 2329.53,707.153 2337.43,707.12 2345.33,707.088 2353.22,707.056 2361.12,707.026 2369.02,706.996 2376.92,706.966 2384.81,706.937 2392.71,706.909 2400.61,706.881 2408.5,706.853 2416.4,706.827 2424.3,706.8 2432.2,706.774 2440.09,706.749 2447.99,706.724 2455.89,706.699 2463.78,706.675 2471.68,706.651 2479.58,706.627 2487.48,706.604 2495.37,706.581 2503.27,706.559 2511.17,706.537 2519.06,706.515 2526.96,706.493 2534.86,706.472 2542.75,706.451 2550.65,706.43 2558.55,706.41 2566.45,706.39 2574.34,706.37 2582.24,706.35 2590.14,706.331 2598.03,706.311 2605.93,706.292 2613.83,706.273 2621.73,706.255 2629.62,706.236 2637.52,706.218 2645.42,706.2 2653.31,706.182 2661.21,706.164 2669.11,706.146 2677.01,706.129 2684.9,706.111 2692.8,706.094 2700.7,706.077 2708.59,706.06 2716.49,706.043 2724.39,706.027 2732.29,706.01 2740.18,705.994 2748.08,705.977 2755.98,705.961 2763.87,705.945 2771.77,705.929 2779.67,705.913 2787.57,705.897 2795.46,705.882 2803.36,705.866 2811.26,705.851 2819.15,705.835 2827.05,705.82 2834.95,705.805 2842.84,705.79 2850.74,705.775 2858.64,705.76 2866.54,705.745 2874.43,705.73 2882.33,705.716 2890.23,705.701 2898.12,705.686 2906.02,705.672 2913.92,705.658 2921.82,705.643 2929.71,705.629 2937.61,705.615 2945.51,705.601 2953.4,705.587 2961.3,705.573 2969.2,705.559 2977.1,705.546 2984.99,705.532 2992.89,705.518 3000.79,705.505 3008.68,705.491 3016.58,705.478 3024.48,705.465 3032.38,705.451 3040.27,705.438 3048.17,705.425 3056.07,705.412 3063.96,705.399 3071.86,705.386 3079.76,705.373 3087.66,705.36 3095.55,705.348 3103.45,705.335 3111.35,705.322 3119.24,705.31 3127.14,705.297 3135.04,705.285 3142.93,705.273 3150.83,705.26 3158.73,705.248 3166.63,705.236 3174.52,705.224 3182.42,705.212 3190.32,705.2 3198.21,705.188 3206.11,705.176 3214.01,705.165 3221.91,705.153 3229.8,705.141 3237.7,705.13 3245.6,705.118 3253.49,705.107 3261.39,705.095 3269.29,705.084 3277.19,705.073 3285.08,705.061 3292.98,705.05 3300.88,705.039 3308.77,705.028 3316.67,705.017 3324.57,705.006 3332.47,704.995 3340.36,704.985 3348.26,704.974 3356.16,704.963 3364.05,704.952 3371.95,704.942 3379.85,704.931 3387.75,704.921 3395.64,704.91 3403.54,704.9 3411.44,704.89 3419.33,704.88 3427.23,704.869 3435.13,704.859 3443.02,704.849 3450.92,704.839 3458.82,704.829 3466.72,704.819 3474.61,704.809 3482.51,704.8 3490.41,704.79 3498.3,704.78 3506.2,704.771 3514.1,704.761 3522,704.751 3529.89,704.742 3537.79,704.732 3545.69,704.723 3553.58,704.714 3561.48,704.704 3569.38,704.695 3577.28,704.686 3585.17,704.677 3593.07,704.668 3600.97,704.659 3608.86,704.65 3616.76,704.641 3624.66,704.632 3632.56,704.623 3640.45,704.614 3648.35,704.605 3656.25,704.597 3664.14,704.588 3672.04,704.579 3679.94,704.571 3687.84,704.562 3695.73,704.554 3703.63,704.545 3711.53,704.537 3719.42,704.529 3727.32,704.52 3735.22,704.512 3743.11,704.504 3751.01,704.496 3758.91,704.487 3766.81,704.479 3774.7,704.471 3782.6,704.463 3790.5,704.455 3798.39,704.447 3806.29,704.44 3814.19,704.432 3822.09,704.424 3829.98,704.416 3837.88,704.408 3845.78,704.401 3853.67,704.393 3861.57,704.386 3869.47,704.378 3877.37,704.37 3885.26,704.363 3893.16,704.356 3901.06,704.348 3908.95,704.341 3916.85,704.333 3924.75,704.326 3932.65,704.319 3940.54,704.312 3948.44,704.305 3956.34,704.297 3964.23,704.29 3972.13,704.283 3980.03,704.276 3987.93,704.269 3995.82,704.262 4003.72,704.255 4011.62,704.248 4019.51,704.242 4027.41,704.235 4035.31,704.228 4043.2,704.221 4051.1,704.214 4059,704.208 4066.9,704.201 4074.79,704.194 4082.69,704.188 4090.59,704.181 4098.48,704.175 4106.38,704.168 4114.28,704.162 4122.18,704.155 4130.07,704.149 4137.97,704.143 4145.87,704.136 4153.76,704.13 4161.66,704.124 4169.56,704.118 4177.46,704.111 4185.35,704.105 4193.25,704.099 4201.15,704.093 4209.04,704.087 4216.94,704.081 4224.84,704.075 4232.74,704.069 4240.63,704.063 4248.53,704.057 4256.43,704.051 4264.32,704.045 4272.22,704.039 4280.12,704.033 4288.02,704.027 4295.91,704.022 4303.81,704.016 4311.71,704.01 4319.6,704.005 4327.5,703.999 4335.4,703.993 4343.29,703.988 4351.19,703.982 4359.09,703.976 4366.99,703.971 4374.88,703.965 4382.78,703.96 4390.68,703.955 4398.57,703.949 4406.47,703.944 4414.37,703.938 4422.27,703.933 4430.16,703.928 4438.06,703.922 4445.96,703.917 4453.85,703.912 4461.75,703.907 4469.65,703.901 4477.55,703.896 4485.44,703.891 4493.34,703.886 4501.24,703.881 4509.13,703.876 4517.03,703.871 4524.93,703.865 4532.83,703.86 4540.72,703.855 4548.62,703.85 4556.52,703.845 4564.41,703.841 4572.31,703.836 4580.21,703.831 4588.11,703.826 4596,703.821 4603.9,703.816 4611.8,703.811 4619.69,703.807 4627.59,703.802 4635.49,703.797 4643.38,703.792 4651.28,703.788 4659.18,703.783 4667.08,703.778 4674.97,703.774 4682.87,703.769 4690.77,703.764 4698.66,703.76 4706.56,703.755 4714.46,703.751 4722.36,703.746 4730.25,703.742 4738.15,703.737 4746.05,703.733 4753.94,703.728 4761.84,703.724 4769.74,703.719 4777.64,703.715 4785.53,703.711 4793.43,703.706 4801.33,703.702 4809.22,703.698 4817.12,703.693 4825.02,703.689 4832.92,703.685 4840.81,703.681 4848.71,703.676 4856.61,703.672 4864.5,703.668 4872.4,703.664 4880.3,703.66 4888.2,703.655 4896.09,703.651 4903.99,703.647 4911.89,703.643 4919.78,703.639 4927.68,703.635 4935.58,703.631 4943.47,703.627 4951.37,703.623 4959.27,703.619 4967.17,703.615 4975.06,703.611 4982.96,703.607 4990.86,703.603 4998.75,703.599 5006.65,703.595 5014.55,703.591 5022.45,703.587 5030.34,703.584 5038.24,703.58 5046.14,703.576 5054.03,703.572 5061.93,703.568 5069.83,703.565 5077.73,703.561 5085.62,703.557 5093.52,703.553 5101.42,703.55 5109.31,703.546 5117.21,703.542 5125.11,703.539 5133.01,703.535 5140.9,703.531 5148.8,703.528 5156.7,703.524 5164.59,703.52 5172.49,703.517 5180.39,703.513 5188.29,703.51 5196.18,703.506 5204.08,703.502 5211.98,703.499 5219.87,703.495 5227.77,703.492 5235.67,703.488 5243.56,703.485 5251.46,703.481 5259.36,703.478 5267.26,703.475 5275.15,703.471 5283.05,703.468 5290.95,703.464 5298.84,703.461 5306.74,703.458 5314.64,703.454 5322.54,703.451 5330.43,703.448 5338.33,703.444 5346.23,703.441 5354.12,703.438 5362.02,703.434 5369.92,703.431 5377.82,703.428 5385.71,703.425 5393.61,703.421 5401.51,703.418 5409.4,703.415 5417.3,703.412 5425.2,703.408 5433.1,703.405 5440.99,703.402 5448.89,703.399 5456.79,703.396 5464.68,703.393 5472.58,703.389 5480.48,703.386 5488.38,703.383 5496.27,703.38 5504.17,703.377 5512.07,703.374 5519.96,703.371 5527.86,703.368 5535.76,703.365 5543.65,703.362 5551.55,703.359 5559.45,703.356 5567.35,703.353 5575.24,703.35 5583.14,703.347 5591.04,703.344 5598.93,703.341 5606.83,703.338 5614.73,703.335 5622.63,703.332 5630.52,703.329 5638.42,703.326 5646.32,703.323 5654.21,703.32 5662.11,703.317 5670.01,703.315 5677.91,703.312 5685.8,703.309 5693.7,703.306 5701.6,703.303 5709.49,703.3 5717.39,703.298 5725.29,703.295 5733.19,703.292 5741.08,703.289 5748.98,703.286 5756.88,703.284 5764.77,703.281 5772.67,703.278 5780.57,703.275 5788.47,703.273 5796.36,703.27 5804.26,703.267 5812.16,703.265 5820.05,703.262 5827.95,703.259 5835.85,703.256 5843.74,703.254 5851.64,703.251 5859.54,703.248 5867.44,703.246 5875.33,703.243 5883.23,703.241 5891.13,703.238 5899.02,703.235 5906.92,703.233 5914.82,703.23 5922.72,703.228 5930.61,703.225 5938.51,703.222 5946.41,703.22 5954.3,703.217 5962.2,703.215 5970.1,703.212 5978,703.21 5985.89,703.207 5993.79,703.205 6001.69,703.202 6009.58,703.2 6017.48,703.197 6025.38,703.195 6033.28,703.192 6041.17,703.19 6049.07,703.187 6056.97,703.185 6064.86,703.182 6072.76,703.18 6080.66,703.177 "></polyline>
<polyline clip-path="url(#clip672)" style="stroke:#3da44d; stroke-linecap:round; stroke-linejoin:round; stroke-width:10; stroke-opacity:1; fill:none" points="819.993,581.203 839.834,593.044 859.676,603.897 879.518,613.846 899.36,622.969 919.201,631.335 939.042,639.007 958.884,646.043 978.726,652.493 998.567,658.407 1018.41,663.826 1038.25,668.791 1058.09,673.337 1077.93,677.499 1097.77,681.306 1117.62,684.786 1137.46,687.964 1157.3,690.865 1177.14,693.51 1196.98,695.919 1216.83,698.11 1236.67,700.101 1256.51,701.907 1276.35,703.542 1296.19,705.019 1316.03,706.352 1335.88,707.552 1355.72,708.628 1375.56,709.592 1395.4,710.451 1415.24,711.215 1435.09,711.89 1454.93,712.485 1474.77,713.006 1494.61,713.458 1514.45,713.848 1534.29,714.181 1554.14,714.461 1573.98,714.694 1593.82,714.883 1613.66,715.032 1633.5,715.144 1653.35,715.224 1673.19,715.274 1693.03,715.296 1712.87,715.294 1732.71,715.269 1752.55,715.224 1772.4,715.161 1792.24,715.082 1812.08,714.988 1831.92,714.881 1851.76,714.762 1871.61,714.633 1891.45,714.495 1911.29,714.348 1931.13,714.194 1950.97,714.034 1970.82,713.869 1990.66,713.699 2010.5,713.525 2030.34,713.348 2050.18,713.168 2070.02,712.986 2089.87,712.802 2109.71,712.617 2129.55,712.432 2149.39,712.246 2169.23,712.06 2189.08,711.875 2208.92,711.69 2228.76,711.507 2248.6,711.324 2268.44,711.143 2288.29,710.963 2308.13,710.785 2327.97,710.609 2347.81,710.435 2367.65,710.263 2387.5,710.094 2407.34,709.927 2427.18,709.762 2447.02,709.6 2466.86,709.441 2486.7,709.284 2506.55,709.129 2526.39,708.977 2546.23,708.828 2566.07,708.682 2585.91,708.538 2605.76,708.397 2625.6,708.258 2645.44,708.122 2665.28,707.989 2685.12,707.858 2704.96,707.73 2724.81,707.605 2744.65,707.481 2764.49,707.361 2784.33,707.242 2804.18,707.126 2824.02,707.013 2843.86,706.901 2863.7,706.792 2883.54,706.686 2903.38,706.581 2923.23,706.479 2943.07,706.378 2962.91,706.28 2982.75,706.184 3002.59,706.09 3022.44,705.998 3042.28,705.908 3062.12,705.819 3081.96,705.733 3101.8,705.648 3121.65,705.566 3141.49,705.485 3161.33,705.405 3181.17,705.328 3201.01,705.252 3220.86,705.178 3240.7,705.105 3260.54,705.034 3280.38,704.964 3300.22,704.896 3320.06,704.83 3339.91,704.765 3359.75,704.701 3379.59,704.638 3399.43,704.577 3419.28,704.518 3439.12,704.459 3458.96,704.402 3478.8,704.346 3498.64,704.291 3518.48,704.238 3538.33,704.185 3558.17,704.134 3578.01,704.084 3597.85,704.035 3617.69,703.987 3637.54,703.94 3657.38,703.894 3677.22,703.848 3697.06,703.804 3716.9,703.761 3736.75,703.719 3756.59,703.678 3776.43,703.637 3796.27,703.598 3816.11,703.559 3835.96,703.521 3855.8,703.484 3875.64,703.448 3895.48,703.412 3915.32,703.377 3935.17,703.343 3955.01,703.31 3974.85,703.278 3994.69,703.246 4014.53,703.215 4034.37,703.184 4054.22,703.155 4074.06,703.126 4093.9,703.097 4113.74,703.069 4133.59,703.042 4153.43,703.016 4173.27,702.99 4193.11,702.964 4212.95,702.939 4232.79,702.915 4252.64,702.891 4272.48,702.868 4292.32,702.845 4312.16,702.823 4332,702.801 4351.85,702.78 4371.69,702.759 4391.53,702.739 4411.37,702.719 4431.21,702.7 4451.06,702.681 4470.9,702.662 4490.74,702.644 4510.58,702.626 4530.42,702.608 4550.27,702.591 4570.11,702.575 4589.95,702.558 4609.79,702.542 4629.63,702.527 4649.48,702.511 4669.32,702.496 4689.16,702.481 4709,702.467 4728.84,702.453 4748.69,702.439 4768.53,702.425 "></polyline>
<path clip-path="url(#clip670)" d="M1068.99 292.695 L1703.01 292.695 L1703.01 85.3352 L1068.99 85.3352  Z" fill="#ffffff" fill-rule="evenodd" fill-opacity="1"></path>
<polyline clip-path="url(#clip670)" style="stroke:#000000; stroke-linecap:round; stroke-linejoin:round; stroke-width:4; stroke-opacity:1; fill:none" points="1068.99,292.695 1703.01,292.695 1703.01,85.3352 1068.99,85.3352 1068.99,292.695 "></polyline>
<polyline clip-path="url(#clip670)" style="stroke:#009af9; stroke-linecap:round; stroke-linejoin:round; stroke-width:10; stroke-opacity:1; fill:none" points="1085.57,137.175 1185.06,137.175 "></polyline>
<path clip-path="url(#clip670)" d="M1201.64 119.895 L1230.88 119.895 L1230.88 123.83 L1218.61 123.83 L1218.61 154.455 L1213.91 154.455 L1213.91 123.83 L1201.64 123.83 L1201.64 119.895 Z" fill="#000000" fill-rule="nonzero" fill-opacity="1"></path><path clip-path="url(#clip670)" d="M1256.76 138.807 L1256.76 154.455 L1252.5 154.455 L1252.5 138.946 Q1252.5 135.266 1251.06 133.437 Q1249.63 131.608 1246.76 131.608 Q1243.31 131.608 1241.32 133.807 Q1239.33 136.006 1239.33 139.803 L1239.33 154.455 L1235.04 154.455 L1235.04 118.437 L1239.33 118.437 L1239.33 132.557 Q1240.85 130.219 1242.91 129.062 Q1245 127.904 1247.71 127.904 Q1252.17 127.904 1254.46 130.682 Q1256.76 133.437 1256.76 138.807 Z" fill="#000000" fill-rule="nonzero" fill-opacity="1"></path><path clip-path="url(#clip670)" d="M1265.25 128.529 L1269.51 128.529 L1269.51 154.455 L1265.25 154.455 L1265.25 128.529 M1265.25 118.437 L1269.51 118.437 L1269.51 123.83 L1265.25 123.83 L1265.25 118.437 Z" fill="#000000" fill-rule="nonzero" fill-opacity="1"></path><path clip-path="url(#clip670)" d="M1294.95 129.293 L1294.95 133.321 Q1293.14 132.395 1291.2 131.932 Q1289.26 131.469 1287.17 131.469 Q1284 131.469 1282.4 132.441 Q1280.83 133.414 1280.83 135.358 Q1280.83 136.84 1281.96 137.696 Q1283.1 138.529 1286.52 139.293 L1287.98 139.617 Q1292.52 140.59 1294.42 142.372 Q1296.34 144.131 1296.34 147.302 Q1296.34 150.914 1293.47 153.02 Q1290.62 155.127 1285.62 155.127 Q1283.54 155.127 1281.27 154.71 Q1279.02 154.316 1276.52 153.506 L1276.52 149.108 Q1278.89 150.335 1281.18 150.96 Q1283.47 151.562 1285.71 151.562 Q1288.72 151.562 1290.34 150.543 Q1291.96 149.502 1291.96 147.627 Q1291.96 145.89 1290.78 144.965 Q1289.63 144.039 1285.67 143.182 L1284.19 142.835 Q1280.23 142.002 1278.47 140.289 Q1276.71 138.553 1276.71 135.543 Q1276.71 131.886 1279.3 129.895 Q1281.89 127.904 1286.66 127.904 Q1289.02 127.904 1291.11 128.252 Q1293.19 128.599 1294.95 129.293 Z" fill="#000000" fill-rule="nonzero" fill-opacity="1"></path><path clip-path="url(#clip670)" d="M1315.3 119.895 L1320.02 119.895 L1327.29 149.108 L1334.53 119.895 L1339.79 119.895 L1347.06 149.108 L1354.3 119.895 L1359.05 119.895 L1350.37 154.455 L1344.49 154.455 L1337.2 124.455 L1329.83 154.455 L1323.95 154.455 L1315.3 119.895 Z" fill="#000000" fill-rule="nonzero" fill-opacity="1"></path><path clip-path="url(#clip670)" d="M1372.33 131.516 Q1368.91 131.516 1366.92 134.201 Q1364.93 136.863 1364.93 141.515 Q1364.93 146.168 1366.89 148.853 Q1368.89 151.515 1372.33 151.515 Q1375.74 151.515 1377.73 148.83 Q1379.72 146.145 1379.72 141.515 Q1379.72 136.909 1377.73 134.224 Q1375.74 131.516 1372.33 131.516 M1372.33 127.904 Q1377.89 127.904 1381.06 131.516 Q1384.23 135.127 1384.23 141.515 Q1384.23 147.881 1381.06 151.515 Q1377.89 155.127 1372.33 155.127 Q1366.76 155.127 1363.58 151.515 Q1360.44 147.881 1360.44 141.515 Q1360.44 135.127 1363.58 131.516 Q1366.76 127.904 1372.33 127.904 Z" fill="#000000" fill-rule="nonzero" fill-opacity="1"></path><path clip-path="url(#clip670)" d="M1406.32 132.511 Q1405.6 132.094 1404.74 131.909 Q1403.91 131.701 1402.89 131.701 Q1399.28 131.701 1397.33 134.062 Q1395.41 136.4 1395.41 140.798 L1395.41 154.455 L1391.13 154.455 L1391.13 128.529 L1395.41 128.529 L1395.41 132.557 Q1396.76 130.196 1398.91 129.062 Q1401.06 127.904 1404.14 127.904 Q1404.58 127.904 1405.11 127.974 Q1405.64 128.02 1406.29 128.136 L1406.32 132.511 Z" fill="#000000" fill-rule="nonzero" fill-opacity="1"></path><path clip-path="url(#clip670)" d="M1410.62 118.437 L1414.9 118.437 L1414.9 139.71 L1427.61 128.529 L1433.05 128.529 L1419.3 140.659 L1433.63 154.455 L1428.07 154.455 L1414.9 141.793 L1414.9 154.455 L1410.62 154.455 L1410.62 118.437 Z" fill="#000000" fill-rule="nonzero" fill-opacity="1"></path><path clip-path="url(#clip670)" d="M1463.54 118.483 Q1460.44 123.807 1458.93 129.016 Q1457.43 134.224 1457.43 139.571 Q1457.43 144.918 1458.93 150.173 Q1460.46 155.404 1463.54 160.705 L1459.83 160.705 Q1456.36 155.265 1454.63 150.011 Q1452.91 144.756 1452.91 139.571 Q1452.91 134.409 1454.63 129.178 Q1456.34 123.946 1459.83 118.483 L1463.54 118.483 Z" fill="#000000" fill-rule="nonzero" fill-opacity="1"></path><path clip-path="url(#clip670)" d="M1471.99 119.895 L1493.84 119.895 L1493.84 123.83 L1476.66 123.83 L1476.66 134.062 L1493.12 134.062 L1493.12 137.997 L1476.66 137.997 L1476.66 150.52 L1494.25 150.52 L1494.25 154.455 L1471.99 154.455 L1471.99 119.895 Z" fill="#000000" fill-rule="nonzero" fill-opacity="1"></path><path clip-path="url(#clip670)" d="M1527.82 122.557 L1527.82 127.488 Q1525.46 125.289 1522.77 124.201 Q1520.11 123.113 1517.1 123.113 Q1511.18 123.113 1508.03 126.747 Q1504.88 130.358 1504.88 137.21 Q1504.88 144.039 1508.03 147.673 Q1511.18 151.284 1517.1 151.284 Q1520.11 151.284 1522.77 150.196 Q1525.46 149.108 1527.82 146.909 L1527.82 151.793 Q1525.37 153.46 1522.61 154.293 Q1519.88 155.127 1516.82 155.127 Q1508.98 155.127 1504.46 150.335 Q1499.95 145.52 1499.95 137.21 Q1499.95 128.877 1504.46 124.085 Q1508.98 119.27 1516.82 119.27 Q1519.93 119.27 1522.66 120.104 Q1525.41 120.914 1527.82 122.557 Z" fill="#000000" fill-rule="nonzero" fill-opacity="1"></path><path clip-path="url(#clip670)" d="M1539.72 123.738 L1539.72 136.724 L1545.6 136.724 Q1548.86 136.724 1550.64 135.034 Q1552.43 133.344 1552.43 130.219 Q1552.43 127.117 1550.64 125.428 Q1548.86 123.738 1545.6 123.738 L1539.72 123.738 M1535.04 119.895 L1545.6 119.895 Q1551.41 119.895 1554.37 122.534 Q1557.36 125.15 1557.36 130.219 Q1557.36 135.335 1554.37 137.951 Q1551.41 140.566 1545.6 140.566 L1539.72 140.566 L1539.72 154.455 L1535.04 154.455 L1535.04 119.895 Z" fill="#000000" fill-rule="nonzero" fill-opacity="1"></path><path clip-path="url(#clip670)" d="M1591.64 118.437 L1591.64 121.979 L1587.56 121.979 Q1585.27 121.979 1584.37 122.904 Q1583.49 123.83 1583.49 126.238 L1583.49 128.529 L1590.5 128.529 L1590.5 131.84 L1583.49 131.84 L1583.49 154.455 L1579.21 154.455 L1579.21 131.84 L1575.13 131.84 L1575.13 128.529 L1579.21 128.529 L1579.21 126.724 Q1579.21 122.395 1581.22 120.428 Q1583.24 118.437 1587.61 118.437 L1591.64 118.437 Z" fill="#000000" fill-rule="nonzero" fill-opacity="1"></path><path clip-path="url(#clip670)" d="M1595.2 128.529 L1599.46 128.529 L1599.46 154.455 L1595.2 154.455 L1595.2 128.529 M1595.2 118.437 L1599.46 118.437 L1599.46 123.83 L1595.2 123.83 L1595.2 118.437 Z" fill="#000000" fill-rule="nonzero" fill-opacity="1"></path><path clip-path="url(#clip670)" d="M1612.59 121.168 L1612.59 128.529 L1621.36 128.529 L1621.36 131.84 L1612.59 131.84 L1612.59 145.914 Q1612.59 149.085 1613.44 149.988 Q1614.32 150.89 1616.99 150.89 L1621.36 150.89 L1621.36 154.455 L1616.99 154.455 Q1612.06 154.455 1610.18 152.627 Q1608.31 150.775 1608.31 145.914 L1608.31 131.84 L1605.18 131.84 L1605.18 128.529 L1608.31 128.529 L1608.31 121.168 L1612.59 121.168 Z" fill="#000000" fill-rule="nonzero" fill-opacity="1"></path><path clip-path="url(#clip670)" d="M1626.29 118.483 L1629.99 118.483 Q1633.47 123.946 1635.18 129.178 Q1636.92 134.409 1636.92 139.571 Q1636.92 144.756 1635.18 150.011 Q1633.47 155.265 1629.99 160.705 L1626.29 160.705 Q1629.37 155.404 1630.87 150.173 Q1632.4 144.918 1632.4 139.571 Q1632.4 134.224 1630.87 129.016 Q1629.37 123.807 1626.29 118.483 Z" fill="#000000" fill-rule="nonzero" fill-opacity="1"></path><polyline clip-path="url(#clip670)" style="stroke:#e26f46; stroke-linecap:round; stroke-linejoin:round; stroke-width:10; stroke-opacity:1; fill:none" points="1085.57,189.015 1185.06,189.015 "></polyline>
<path clip-path="url(#clip670)" d="M1201.64 171.735 L1230.88 171.735 L1230.88 175.67 L1218.61 175.67 L1218.61 206.295 L1213.91 206.295 L1213.91 175.67 L1201.64 175.67 L1201.64 171.735 Z" fill="#000000" fill-rule="nonzero" fill-opacity="1"></path><path clip-path="url(#clip670)" d="M1256.76 190.647 L1256.76 206.295 L1252.5 206.295 L1252.5 190.786 Q1252.5 187.106 1251.06 185.277 Q1249.63 183.448 1246.76 183.448 Q1243.31 183.448 1241.32 185.647 Q1239.33 187.846 1239.33 191.643 L1239.33 206.295 L1235.04 206.295 L1235.04 170.277 L1239.33 170.277 L1239.33 184.397 Q1240.85 182.059 1242.91 180.902 Q1245 179.744 1247.71 179.744 Q1252.17 179.744 1254.46 182.522 Q1256.76 185.277 1256.76 190.647 Z" fill="#000000" fill-rule="nonzero" fill-opacity="1"></path><path clip-path="url(#clip670)" d="M1265.25 180.369 L1269.51 180.369 L1269.51 206.295 L1265.25 206.295 L1265.25 180.369 M1265.25 170.277 L1269.51 170.277 L1269.51 175.67 L1265.25 175.67 L1265.25 170.277 Z" fill="#000000" fill-rule="nonzero" fill-opacity="1"></path><path clip-path="url(#clip670)" d="M1294.95 181.133 L1294.95 185.161 Q1293.14 184.235 1291.2 183.772 Q1289.26 183.309 1287.17 183.309 Q1284 183.309 1282.4 184.281 Q1280.83 185.254 1280.83 187.198 Q1280.83 188.68 1281.96 189.536 Q1283.1 190.369 1286.52 191.133 L1287.98 191.457 Q1292.52 192.43 1294.42 194.212 Q1296.34 195.971 1296.34 199.142 Q1296.34 202.754 1293.47 204.86 Q1290.62 206.967 1285.62 206.967 Q1283.54 206.967 1281.27 206.55 Q1279.02 206.156 1276.52 205.346 L1276.52 200.948 Q1278.89 202.175 1281.18 202.8 Q1283.47 203.402 1285.71 203.402 Q1288.72 203.402 1290.34 202.383 Q1291.96 201.342 1291.96 199.467 Q1291.96 197.73 1290.78 196.805 Q1289.63 195.879 1285.67 195.022 L1284.19 194.675 Q1280.23 193.842 1278.47 192.129 Q1276.71 190.393 1276.71 187.383 Q1276.71 183.726 1279.3 181.735 Q1281.89 179.744 1286.66 179.744 Q1289.02 179.744 1291.11 180.092 Q1293.19 180.439 1294.95 181.133 Z" fill="#000000" fill-rule="nonzero" fill-opacity="1"></path><path clip-path="url(#clip670)" d="M1315.3 171.735 L1320.02 171.735 L1327.29 200.948 L1334.53 171.735 L1339.79 171.735 L1347.06 200.948 L1354.3 171.735 L1359.05 171.735 L1350.37 206.295 L1344.49 206.295 L1337.2 176.295 L1329.83 206.295 L1323.95 206.295 L1315.3 171.735 Z" fill="#000000" fill-rule="nonzero" fill-opacity="1"></path><path clip-path="url(#clip670)" d="M1372.33 183.356 Q1368.91 183.356 1366.92 186.041 Q1364.93 188.703 1364.93 193.355 Q1364.93 198.008 1366.89 200.693 Q1368.89 203.355 1372.33 203.355 Q1375.74 203.355 1377.73 200.67 Q1379.72 197.985 1379.72 193.355 Q1379.72 188.749 1377.73 186.064 Q1375.74 183.356 1372.33 183.356 M1372.33 179.744 Q1377.89 179.744 1381.06 183.356 Q1384.23 186.967 1384.23 193.355 Q1384.23 199.721 1381.06 203.355 Q1377.89 206.967 1372.33 206.967 Q1366.76 206.967 1363.58 203.355 Q1360.44 199.721 1360.44 193.355 Q1360.44 186.967 1363.58 183.356 Q1366.76 179.744 1372.33 179.744 Z" fill="#000000" fill-rule="nonzero" fill-opacity="1"></path><path clip-path="url(#clip670)" d="M1406.32 184.351 Q1405.6 183.934 1404.74 183.749 Q1403.91 183.541 1402.89 183.541 Q1399.28 183.541 1397.33 185.902 Q1395.41 188.24 1395.41 192.638 L1395.41 206.295 L1391.13 206.295 L1391.13 180.369 L1395.41 180.369 L1395.41 184.397 Q1396.76 182.036 1398.91 180.902 Q1401.06 179.744 1404.14 179.744 Q1404.58 179.744 1405.11 179.814 Q1405.64 179.86 1406.29 179.976 L1406.32 184.351 Z" fill="#000000" fill-rule="nonzero" fill-opacity="1"></path><path clip-path="url(#clip670)" d="M1410.62 170.277 L1414.9 170.277 L1414.9 191.55 L1427.61 180.369 L1433.05 180.369 L1419.3 192.499 L1433.63 206.295 L1428.07 206.295 L1414.9 193.633 L1414.9 206.295 L1410.62 206.295 L1410.62 170.277 Z" fill="#000000" fill-rule="nonzero" fill-opacity="1"></path><path clip-path="url(#clip670)" d="M1463.54 170.323 Q1460.44 175.647 1458.93 180.856 Q1457.43 186.064 1457.43 191.411 Q1457.43 196.758 1458.93 202.013 Q1460.46 207.244 1463.54 212.545 L1459.83 212.545 Q1456.36 207.105 1454.63 201.851 Q1452.91 196.596 1452.91 191.411 Q1452.91 186.249 1454.63 181.018 Q1456.34 175.786 1459.83 170.323 L1463.54 170.323 Z" fill="#000000" fill-rule="nonzero" fill-opacity="1"></path><path clip-path="url(#clip670)" d="M1471.99 171.735 L1491.85 171.735 L1491.85 175.67 L1476.66 175.67 L1476.66 185.856 L1490.37 185.856 L1490.37 189.791 L1476.66 189.791 L1476.66 206.295 L1471.99 206.295 L1471.99 171.735 Z" fill="#000000" fill-rule="nonzero" fill-opacity="1"></path><path clip-path="url(#clip670)" d="M1496.04 196.064 L1496.04 180.369 L1500.3 180.369 L1500.3 195.902 Q1500.3 199.582 1501.73 201.434 Q1503.17 203.263 1506.04 203.263 Q1509.49 203.263 1511.48 201.064 Q1513.49 198.865 1513.49 195.068 L1513.49 180.369 L1517.75 180.369 L1517.75 206.295 L1513.49 206.295 L1513.49 202.314 Q1511.94 204.675 1509.88 205.832 Q1507.84 206.967 1505.13 206.967 Q1500.67 206.967 1498.35 204.189 Q1496.04 201.411 1496.04 196.064 M1506.75 179.744 L1506.75 179.744 Z" fill="#000000" fill-rule="nonzero" fill-opacity="1"></path><path clip-path="url(#clip670)" d="M1526.52 170.277 L1530.78 170.277 L1530.78 206.295 L1526.52 206.295 L1526.52 170.277 Z" fill="#000000" fill-rule="nonzero" fill-opacity="1"></path><path clip-path="url(#clip670)" d="M1539.69 170.277 L1543.95 170.277 L1543.95 206.295 L1539.69 206.295 L1539.69 170.277 Z" fill="#000000" fill-rule="nonzero" fill-opacity="1"></path><path clip-path="url(#clip670)" d="M1568.12 171.735 L1589.97 171.735 L1589.97 175.67 L1572.8 175.67 L1572.8 185.902 L1589.25 185.902 L1589.25 189.837 L1572.8 189.837 L1572.8 202.36 L1590.39 202.36 L1590.39 206.295 L1568.12 206.295 L1568.12 171.735 Z" fill="#000000" fill-rule="nonzero" fill-opacity="1"></path><path clip-path="url(#clip670)" d="M1598.49 200.416 L1603.37 200.416 L1603.37 206.295 L1598.49 206.295 L1598.49 200.416 Z" fill="#000000" fill-rule="nonzero" fill-opacity="1"></path><path clip-path="url(#clip670)" d="M1641.15 170.277 L1641.15 173.819 L1637.08 173.819 Q1634.79 173.819 1633.88 174.744 Q1633 175.67 1633 178.078 L1633 180.369 L1640.02 180.369 L1640.02 183.68 L1633 183.68 L1633 206.295 L1628.72 206.295 L1628.72 183.68 L1624.65 183.68 L1624.65 180.369 L1628.72 180.369 L1628.72 178.564 Q1628.72 174.235 1630.74 172.268 Q1632.75 170.277 1637.12 170.277 L1641.15 170.277 Z" fill="#000000" fill-rule="nonzero" fill-opacity="1"></path><path clip-path="url(#clip670)" d="M1644.72 180.369 L1648.98 180.369 L1648.98 206.295 L1644.72 206.295 L1644.72 180.369 M1644.72 170.277 L1648.98 170.277 L1648.98 175.67 L1644.72 175.67 L1644.72 170.277 Z" fill="#000000" fill-rule="nonzero" fill-opacity="1"></path><path clip-path="url(#clip670)" d="M1662.1 173.008 L1662.1 180.369 L1670.87 180.369 L1670.87 183.68 L1662.1 183.68 L1662.1 197.754 Q1662.1 200.925 1662.96 201.828 Q1663.84 202.73 1666.5 202.73 L1670.87 202.73 L1670.87 206.295 L1666.5 206.295 Q1661.57 206.295 1659.69 204.467 Q1657.82 202.615 1657.82 197.754 L1657.82 183.68 L1654.69 183.68 L1654.69 180.369 L1657.82 180.369 L1657.82 173.008 L1662.1 173.008 Z" fill="#000000" fill-rule="nonzero" fill-opacity="1"></path><path clip-path="url(#clip670)" d="M1675.8 170.323 L1679.51 170.323 Q1682.98 175.786 1684.69 181.018 Q1686.43 186.249 1686.43 191.411 Q1686.43 196.596 1684.69 201.851 Q1682.98 207.105 1679.51 212.545 L1675.8 212.545 Q1678.88 207.244 1680.39 202.013 Q1681.92 196.758 1681.92 191.411 Q1681.92 186.064 1680.39 180.856 Q1678.88 175.647 1675.8 170.323 Z" fill="#000000" fill-rule="nonzero" fill-opacity="1"></path><polyline clip-path="url(#clip670)" style="stroke:#3da44d; stroke-linecap:round; stroke-linejoin:round; stroke-width:10; stroke-opacity:1; fill:none" points="1085.57,240.855 1185.06,240.855 "></polyline>
<path clip-path="url(#clip670)" d="M1229.51 226.237 L1229.51 231.168 Q1227.15 228.969 1224.46 227.881 Q1221.8 226.793 1218.79 226.793 Q1212.87 226.793 1209.72 230.427 Q1206.57 234.038 1206.57 240.89 Q1206.57 247.719 1209.72 251.353 Q1212.87 254.964 1218.79 254.964 Q1221.8 254.964 1224.46 253.876 Q1227.15 252.788 1229.51 250.589 L1229.51 255.473 Q1227.06 257.14 1224.3 257.973 Q1221.57 258.807 1218.52 258.807 Q1210.67 258.807 1206.15 254.015 Q1201.64 249.2 1201.64 240.89 Q1201.64 232.557 1206.15 227.765 Q1210.67 222.95 1218.52 222.95 Q1221.62 222.95 1224.35 223.784 Q1227.1 224.594 1229.51 226.237 Z" fill="#000000" fill-rule="nonzero" fill-opacity="1"></path><path clip-path="url(#clip670)" d="M1262.61 226.237 L1262.61 231.168 Q1260.25 228.969 1257.57 227.881 Q1254.9 226.793 1251.9 226.793 Q1245.97 226.793 1242.82 230.427 Q1239.67 234.038 1239.67 240.89 Q1239.67 247.719 1242.82 251.353 Q1245.97 254.964 1251.9 254.964 Q1254.9 254.964 1257.57 253.876 Q1260.25 252.788 1262.61 250.589 L1262.61 255.473 Q1260.16 257.14 1257.4 257.973 Q1254.67 258.807 1251.62 258.807 Q1243.77 258.807 1239.26 254.015 Q1234.74 249.2 1234.74 240.89 Q1234.74 232.557 1239.26 227.765 Q1243.77 222.95 1251.62 222.95 Q1254.72 222.95 1257.45 223.784 Q1260.21 224.594 1262.61 226.237 Z" fill="#000000" fill-rule="nonzero" fill-opacity="1"></path><path clip-path="url(#clip670)" d="M1290.55 224.709 L1290.55 229.27 Q1287.89 227.997 1285.53 227.372 Q1283.17 226.747 1280.97 226.747 Q1277.15 226.747 1275.07 228.228 Q1273.01 229.709 1273.01 232.441 Q1273.01 234.733 1274.37 235.913 Q1275.76 237.071 1279.6 237.788 L1282.43 238.367 Q1287.66 239.362 1290.14 241.885 Q1292.64 244.385 1292.64 248.598 Q1292.64 253.621 1289.26 256.214 Q1285.9 258.807 1279.39 258.807 Q1276.94 258.807 1274.16 258.251 Q1271.41 257.695 1268.45 256.607 L1268.45 251.793 Q1271.29 253.39 1274.02 254.2 Q1276.76 255.01 1279.39 255.01 Q1283.4 255.01 1285.58 253.436 Q1287.75 251.862 1287.75 248.945 Q1287.75 246.399 1286.18 244.964 Q1284.63 243.529 1281.06 242.811 L1278.21 242.256 Q1272.98 241.214 1270.65 238.992 Q1268.31 236.77 1268.31 232.811 Q1268.31 228.228 1271.52 225.589 Q1274.77 222.95 1280.44 222.95 Q1282.87 222.95 1285.39 223.39 Q1287.91 223.83 1290.55 224.709 Z" fill="#000000" fill-rule="nonzero" fill-opacity="1"></path><path clip-path="url(#clip670)" d="M1304.6 227.418 L1304.6 254.293 L1310.25 254.293 Q1317.4 254.293 1320.71 251.052 Q1324.05 247.811 1324.05 240.821 Q1324.05 233.876 1320.71 230.659 Q1317.4 227.418 1310.25 227.418 L1304.6 227.418 M1299.93 223.575 L1309.53 223.575 Q1319.58 223.575 1324.28 227.765 Q1328.98 231.932 1328.98 240.821 Q1328.98 249.756 1324.26 253.945 Q1319.53 258.135 1309.53 258.135 L1299.93 258.135 L1299.93 223.575 Z" fill="#000000" fill-rule="nonzero" fill-opacity="1"></path><path clip-path="url(#clip670)" d="M1346.48 222.163 Q1343.38 227.487 1341.87 232.696 Q1340.37 237.904 1340.37 243.251 Q1340.37 248.598 1341.87 253.853 Q1343.4 259.084 1346.48 264.385 L1342.77 264.385 Q1339.3 258.945 1337.57 253.691 Q1335.85 248.436 1335.85 243.251 Q1335.85 238.089 1337.57 232.858 Q1339.28 227.626 1342.77 222.163 L1346.48 222.163 Z" fill="#000000" fill-rule="nonzero" fill-opacity="1"></path><path clip-path="url(#clip670)" d="M1350.14 223.575 L1379.37 223.575 L1379.37 227.51 L1367.1 227.51 L1367.1 258.135 L1362.4 258.135 L1362.4 227.51 L1350.14 227.51 L1350.14 223.575 Z" fill="#000000" fill-rule="nonzero" fill-opacity="1"></path><path clip-path="url(#clip670)" d="M1383.03 222.163 L1386.73 222.163 Q1390.2 227.626 1391.92 232.858 Q1393.65 238.089 1393.65 243.251 Q1393.65 248.436 1391.92 253.691 Q1390.2 258.945 1386.73 264.385 L1383.03 264.385 Q1386.11 259.084 1387.61 253.853 Q1389.14 248.598 1389.14 243.251 Q1389.14 237.904 1387.61 232.696 Q1386.11 227.487 1383.03 222.163 Z" fill="#000000" fill-rule="nonzero" fill-opacity="1"></path><path clip-path="url(#clip670)" d="M1409.76 223.575 L1413.7 223.575 L1401.66 262.533 L1397.73 262.533 L1409.76 223.575 Z" fill="#000000" fill-rule="nonzero" fill-opacity="1"></path><path clip-path="url(#clip670)" d="M1436.82 233.205 L1436.82 237.186 Q1435.02 236.191 1433.19 235.705 Q1431.38 235.196 1429.53 235.196 Q1425.39 235.196 1423.1 237.834 Q1420.81 240.45 1420.81 245.195 Q1420.81 249.941 1423.1 252.58 Q1425.39 255.195 1429.53 255.195 Q1431.38 255.195 1433.19 254.709 Q1435.02 254.2 1436.82 253.205 L1436.82 257.14 Q1435.04 257.973 1433.12 258.39 Q1431.22 258.807 1429.07 258.807 Q1423.21 258.807 1419.76 255.126 Q1416.32 251.445 1416.32 245.195 Q1416.32 238.853 1419.79 235.219 Q1423.28 231.584 1429.35 231.584 Q1431.32 231.584 1433.19 232.001 Q1435.07 232.395 1436.82 233.205 Z" fill="#000000" fill-rule="nonzero" fill-opacity="1"></path><path clip-path="url(#clip670)" d="M1462.89 233.205 L1462.89 237.186 Q1461.08 236.191 1459.26 235.705 Q1457.45 235.196 1455.6 235.196 Q1451.45 235.196 1449.16 237.834 Q1446.87 240.45 1446.87 245.195 Q1446.87 249.941 1449.16 252.58 Q1451.45 255.195 1455.6 255.195 Q1457.45 255.195 1459.26 254.709 Q1461.08 254.2 1462.89 253.205 L1462.89 257.14 Q1461.11 257.973 1459.19 258.39 Q1457.29 258.807 1455.13 258.807 Q1449.28 258.807 1445.83 255.126 Q1442.38 251.445 1442.38 245.195 Q1442.38 238.853 1445.85 235.219 Q1449.35 231.584 1455.41 231.584 Q1457.38 231.584 1459.26 232.001 Q1461.13 232.395 1462.89 233.205 Z" fill="#000000" fill-rule="nonzero" fill-opacity="1"></path><path clip-path="url(#clip670)" d="M1468.14 243.251 L1480.62 243.251 L1480.62 247.047 L1468.14 247.047 L1468.14 243.251 Z" fill="#000000" fill-rule="nonzero" fill-opacity="1"></path><path clip-path="url(#clip670)" d="M1491.52 254.246 L1491.52 267.996 L1487.24 267.996 L1487.24 232.209 L1491.52 232.209 L1491.52 236.145 Q1492.87 233.83 1494.9 232.719 Q1496.96 231.584 1499.81 231.584 Q1504.53 231.584 1507.47 235.334 Q1510.44 239.084 1510.44 245.195 Q1510.44 251.307 1507.47 255.057 Q1504.53 258.807 1499.81 258.807 Q1496.96 258.807 1494.9 257.695 Q1492.87 256.561 1491.52 254.246 M1506.01 245.195 Q1506.01 240.496 1504.07 237.834 Q1502.15 235.149 1498.77 235.149 Q1495.39 235.149 1493.44 237.834 Q1491.52 240.496 1491.52 245.195 Q1491.52 249.895 1493.44 252.58 Q1495.39 255.242 1498.77 255.242 Q1502.15 255.242 1504.07 252.58 Q1506.01 249.895 1506.01 245.195 Z" fill="#000000" fill-rule="nonzero" fill-opacity="1"></path><path clip-path="url(#clip670)" d="M1526.59 258.135 L1513.4 223.575 L1518.28 223.575 L1529.23 252.672 L1540.2 223.575 L1545.06 223.575 L1531.89 258.135 L1526.59 258.135 Z" fill="#000000" fill-rule="nonzero" fill-opacity="1"></path><path clip-path="url(#clip670)" d="M1545.32 223.575 L1574.56 223.575 L1574.56 227.51 L1562.29 227.51 L1562.29 258.135 L1557.59 258.135 L1557.59 227.51 L1545.32 227.51 L1545.32 223.575 Z" fill="#000000" fill-rule="nonzero" fill-opacity="1"></path><path clip-path="url(#clip670)" d="M1577.08 223.575 L1604.23 223.575 L1604.23 227.14 L1582.38 254.2 L1604.76 254.2 L1604.76 258.135 L1576.55 258.135 L1576.55 254.57 L1598.4 227.51 L1577.08 227.51 L1577.08 223.575 Z" fill="#000000" fill-rule="nonzero" fill-opacity="1"></path></svg>